<?xml version="1.0" standalone="no"?>
<!DOCTYPE svg PUBLIC "-//W3C//DTD SVG 1.1//EN" "http://www.w3.org/Graphics/SVG/1.1/DTD/svg11.dtd" >
<svg xmlns="http://www.w3.org/2000/svg">
<metadata></metadata>
<defs>
<font id="seaside_resort_nfregular" horiz-adv-x="1720" >
<font-face units-per-em="2048" ascent="1802" descent="-246" />
<missing-glyph horiz-adv-x="460" />
<glyph horiz-adv-x="0" />
<glyph unicode="&#xd;" horiz-adv-x="681" />
<glyph unicode=" "  horiz-adv-x="460" />
<glyph unicode="&#x09;" horiz-adv-x="460" />
<glyph unicode="&#xa0;" horiz-adv-x="460" />
<glyph unicode="!" horiz-adv-x="503" d="M74 0v225h155v-225h-155zM74 289v30h295v1428h61v-1458h-356zM74 381v1382h155v-1382h-155zM369 0v225h61v-225h-61z" />
<glyph unicode="&#x22;" horiz-adv-x="731" d="M74 1386l155 418h203l-262 -418h-96zM299 1386l156 418h202l-262 -418h-96z" />
<glyph unicode="#" horiz-adv-x="1462" d="M86 532v130h246l90 452h-336v127h363l104 518h129l-102 -518h393l102 518h129l-100 -518h231v-127h-258l-90 -452h348v-130h-374l-105 -532h-131l106 532h-393l-106 -532h-131l108 532h-223zM465 662h391l90 452h-391z" />
<glyph unicode="$" horiz-adv-x="968" d="M74 1214q0 106 62.5 195.5t162.5 122.5v231h156v-213q121 -16 207 -108l-115 -105q-33 37 -92 56v-498q123 -147 123 -301q0 -176 -123 -287v-311h-156v225q-78 -16 -119 -16v153q63 0 119 31v445q-10 12 -59.5 64t-65.5 73.5t-47 66.5t-42 87t-11 89zM227 1214 q0 -67 72 -147v291q-72 -53 -72 -144zM588 -4v256q125 150 125 342q0 199 -125 354v258h61v-258q125 -155 125 -354q0 -193 -125 -342v-256h-61zM664 1303l167 153q-66 78 -167 121v186h61v-186q94 -39 170 -121l-229 -209z" />
<glyph unicode="%" horiz-adv-x="1669" d="M74 1454q0 139 97 236.5t236.5 97.5t237.5 -97.5t98 -236.5t-98 -237.5t-237.5 -98.5t-236.5 98.5t-97 237.5zM178 1454q0 -98 66.5 -164.5t163.5 -66.5q98 0 164.5 66.5t66.5 164.5q0 94 -67.5 160.5t-164 66.5t-163 -66.5t-66.5 -160.5zM272 1452q0 63 41 100t107 37 q2 0 4 -1t4 -1q-49 -10 -82 -47t-33 -88q0 -49 34 -86t83 -47h-20q-59 0 -98.5 38t-39.5 95zM387 0l401 1190q-23 -29 -65 -66h-41q156 131 156 322q0 205 -164 344h43q158 -135 164 -332l104 309h137l-598 -1767h-137zM625 0l598 1767h108l-450 -1206q96 102 241 103 q139 0 237.5 -97.5t98.5 -237t-98 -237.5t-238 -98q-137 0 -232 92t-102 227l-116 -313h-47zM893 330q0 -98 66.5 -165t162.5 -67q98 0 165 67t67 165q0 94 -67.5 160.5t-164 66.5t-163 -66.5t-66.5 -160.5zM987 328q0 63 41 100t107 37l4 -2h4q-49 -10 -82 -47t-33 -88 q0 -49 34 -86t83 -47h-21q-59 0 -98 37.5t-39 95.5zM1389 666h43q163 -139 163 -344q0 -195 -157 -322h-41q156 131 155 322q0 205 -163 344z" />
<glyph unicode="&#x26;" horiz-adv-x="1816" d="M74 623q0 201 106.5 364.5t290.5 235.5q-78 111 -78 215q0 135 95.5 232t230.5 97v-157q-72 0 -122 -51.5t-50 -120.5q0 -53 24 -88l613 -883q25 74 24 156h154q0 -166 -76 -306l221 -317h-188l-129 182q-190 -205 -471 -205q-268 0 -456.5 188.5t-188.5 457.5zM227 623 q0 -205 143.5 -348.5t348.5 -143.5q229 0 381 182l-537 779q-156 -47 -246 -175.5t-90 -293.5zM369 625q0 193 145 293l23 -33q-106 -92 -107 -260q0 -137 92.5 -240t227.5 -113h-31q-145 0 -247.5 103.5t-102.5 249.5zM686 1438q0 35 29 35h63q-29 -6 -28 -46l522 -751h-64 zM844 1479v288h61v-288h-61zM1448 330q55 150 55 293h64q0 -150 -58 -293l234 -330h-64z" />
<glyph unicode="'" horiz-adv-x="505" d="M74 1386l155 418h203l-262 -418h-96z" />
<glyph unicode="(" horiz-adv-x="899" d="M74 739.5q0 278.5 119.5 530.5t334.5 430l93 -125q-186 -156 -288 -374t-102 -462q0 -242 103 -460.5t287 -374.5l-93 -125q-215 180 -334.5 431t-119.5 529.5zM369 739.5q0 229.5 104.5 433t290.5 336.5l-146 195h62l145 -195q-186 -133 -290.5 -336.5t-104.5 -433 t104.5 -432.5t290.5 -336l-143 -196h-61l143 196q-186 133 -290.5 336t-104.5 432.5z" />
<glyph unicode=")" horiz-adv-x="894" d="M74 -92q186 156 288.5 374t102.5 459.5t-102.5 460.5t-286.5 373l92 125q213 -176 331.5 -428t118.5 -530.5t-118.5 -530.5t-333.5 -428zM387 -225q176 197 274.5 449.5t98.5 516.5q0 549 -371 969h64q368 -432 368 -969q0 -549 -370 -966h-64z" />
<glyph unicode="*" horiz-adv-x="753" d="M74 1407l174 98l-115 166l186 -74l58 189l57 -189l187 74l-115 -166l174 -98l-199 -12l31 -199l-135 145l-133 -145l30 199z" />
<glyph unicode="+" horiz-adv-x="1507" d="M74 600v64h364v-64h-364zM74 805v153h510v486h153v-486h508v-153h-508v-539h-153v539h-510zM877 266v398h389l-326 -162v-236h-63zM877 1083v363h63v-363h-63zM1370 664v294h64v-294h-64z" />
<glyph unicode="," horiz-adv-x="598" d="M74 23l94 86v116h156v-184l-146 -133zM305 -166l158 143v248h61v-248l-190 -174z" />
<glyph unicode="-" horiz-adv-x="722" d="M74 801v155h401v-155h-401zM190 631v33h412v401h47v-434h-459z" />
<glyph unicode="." horiz-adv-x="503" d="M74 0v225h155v-225h-155zM369 0v225h61v-225h-61z" />
<glyph unicode="/" horiz-adv-x="1165" d="M74 0l598 1767h153l-598 -1767h-153zM369 0l598 1767h125l-660 -1767h-63z" />
<glyph unicode="0" horiz-adv-x="2160" d="M74 881q0 377 263 643t640 266q379 0 644 -266t265 -643q0 -375 -267 -640.5t-642 -265.5q-377 0 -640 263.5t-263 642.5zM227 881q0 -311 219.5 -530.5t530.5 -219.5q313 0 532.5 218t219.5 531.5t-219.5 532.5t-532.5 219t-531.5 -219t-218.5 -532zM369 881 q0 254 177 434t431 180q2 0 78 -31q-244 -14 -412 -192t-168 -422q0 -240 147.5 -402.5t387.5 -177.5h-33q-252 0 -430 179.5t-178 431.5zM1536 -2q231 145 359 377.5t128 505.5q0 270 -129 504.5t-356 379.5h61q229 -147 358.5 -379.5t129.5 -505t-129 -505t-361 -377.5 h-61z" />
<glyph unicode="1" horiz-adv-x="567" d="M74 0v1767h153v-1767h-153zM369 0v1767h125l-62 -1767h-63z" />
<glyph unicode="2" horiz-adv-x="1400" d="M74 0l753 772q143 150 144 346q0 205 -144.5 348.5t-349.5 143.5q-150 0 -270 -80l-88 129q170 109 358 108q268 0 457.5 -190.5t189.5 -458.5t-186 -456l-498 -506h621v-156h-987zM258 1421q135 66 219 66q158 0 255 -109.5t97 -269.5q-8 139 -110.5 236.5t-241.5 97.5 q-106 0 -194 -60zM772 295q33 35 103.5 104.5t104.5 105.5t89 99.5t83 112.5t59.5 114.5t44 136t12.5 150.5q0 193 -92.5 365t-251.5 284h61q160 -111 251 -282.5t91 -366.5q0 -80 -12 -151.5t-43 -137t-57.5 -113.5t-82 -111.5t-89 -98.5t-104.5 -105.5t-105 -105.5h-62z M1186 0v295h63v-295h-63z" />
<glyph unicode="3" horiz-adv-x="1349" d="M74 78l88 129q121 -80 268 -80q203 0 346.5 144.5t143.5 347t-143.5 346t-346.5 143.5h-162l402 498h-490v157h811l-416 -518q219 -51 358.5 -226.5t139.5 -400.5q0 -268 -187.5 -456.5t-455.5 -188.5q-197 0 -356 105zM805 1307l366 456h64l-369 -456q188 -102 299 -288 t111 -401q0 -184 -81 -346.5t-226 -275.5h-62q145 113 226 275.5t81 346.5q0 215 -110.5 400.5t-298.5 288.5z" />
<glyph unicode="4" horiz-adv-x="1622" d="M74 518l977 1245h151v-1089h160v-156h-160v-518h-153v518h-975zM393 674h656v833zM678 813l229 291v-129l-166 -162h-63zM1343 0v379h62v-379h-62zM1343 813v950h62v-950h-62zM1487 379v434h61v-434h-61z" />
<glyph unicode="5" horiz-adv-x="1347" d="M74 78l86 129q125 -80 268 -80q205 0 347.5 143.5t142.5 347.5q0 203 -143.5 346.5t-346.5 143.5h-82v655h610v-157h-448v-349q242 -29 403.5 -212t161.5 -427q0 -268 -188.5 -456.5t-456.5 -188.5q-195 0 -354 105zM643 1372v111h438v280h62v-325h-434v-66 q250 -74 407.5 -284t157.5 -470q0 -182 -80 -345.5t-225 -276.5h-62q143 113 224 276.5t81 345.5q0 262 -157.5 471t-411.5 283z" />
<glyph unicode="6" horiz-adv-x="1640" d="M74 618q0 223 147 406l592 739h199l-410 -512q78 12 119 13q268 0 456.5 -188.5t188.5 -457t-188.5 -457t-456.5 -188.5t-457.5 188.5t-189.5 456.5zM231 618q0 -203 143.5 -347t346.5 -144q205 0 348 143.5t143 348t-143 347t-348 142.5t-347.5 -142.5t-142.5 -347.5z M369 618q0 143 103 247t249 104h33q-137 -14 -229.5 -113.5t-92.5 -237t92.5 -239t229.5 -111.5h-33q-145 0 -248.5 102.5t-103.5 247.5zM887 1384l305 379h63l-307 -379q272 -59 445.5 -273t173.5 -493q0 -182 -81 -345.5t-224 -276.5h-64q145 113 226 275.5t81 346.5 q0 276 -174 491.5t-444 274.5z" />
<glyph unicode="7" horiz-adv-x="1175" d="M74 1606v157h819l-582 -1763h-164l531 1606h-604zM455 0l585 1763h62l-584 -1763h-63z" />
<glyph unicode="8" horiz-adv-x="1640" d="M74 618q0 197 110.5 361t294.5 238q-86 90 -86 217q0 135 95.5 232t230.5 97q137 0 232.5 -96t95.5 -233q0 -123 -84 -217q182 -74 292.5 -237t110.5 -362q0 -268 -189.5 -456.5t-457.5 -188.5t-456.5 188.5t-188.5 456.5zM231 618q0 -205 141.5 -348t346.5 -143 t348 143.5t143 348t-143 347t-348 142.5q-201 0 -344.5 -144.5t-143.5 -345.5zM369 618q0 143 102 247t248 104h31q-133 -14 -225.5 -114.5t-92.5 -236.5q0 -137 91.5 -238.5t226.5 -111.5h-31q-145 0 -247.5 102.5t-102.5 247.5zM547 1434q0 -72 51 -121t123 -49 q70 0 120 50t50 120q0 72 -50 122t-122 50t-122 -51.5t-50 -120.5zM688 1434q0 35 31 35t31 -35q0 -31 -31 -31t-31 31zM1053 1763h61q133 -139 133 -329q0 -82 -28 -164q164 -111 256 -283t92 -369q0 -184 -81 -346.5t-226 -275.5h-64q147 113 228 275.5t81 346.5 q0 195 -93 368t-255 284q29 92 29 164q0 190 -133 329z" />
<glyph unicode="9" horiz-adv-x="1638" d="M74 1118q0 268 188.5 456.5t456.5 188.5t456.5 -188.5t188.5 -456.5q0 -233 -143 -409l-576 -713h-199l394 485q-55 -8 -121 -8q-268 0 -456.5 188.5t-188.5 456.5zM231 1118q0 -205 141.5 -348t346.5 -143t348 143t143 348t-143 347.5t-348 142.5t-346.5 -142.5 t-141.5 -347.5zM369 1118q0 162 108.5 256t270.5 94q-135 -8 -225.5 -110.5t-90.5 -239.5t90.5 -238.5t227.5 -111.5q-12 -2 -35 -2q-143 0 -244.5 104.5t-101.5 247.5zM823 -4l502 629q176 219 176 510q0 186 -91 352t-249 276h62q158 -111 250 -276.5t92 -351.5 q0 -291 -176 -510l-502 -629h-64z" />
<glyph unicode=":" horiz-adv-x="509" d="M74 539v45h297v340h61v-385h-358zM76 694v230h155v-230h-155zM80 0v225h156v-225h-156zM375 0v225h61v-225h-61z" />
<glyph unicode=";" horiz-adv-x="598" d="M74 23l94 86v116h156v-184l-146 -133zM166 539v45h297v340h61v-385h-358zM168 694v230h156v-230h-156zM305 -166l158 143v248h61v-248l-190 -174z" />
<glyph unicode="&#x3c;" horiz-adv-x="929" d="M74 928l340 512h186l-342 -512l369 -551h-183zM426 928l340 512h63l-342 -512l369 -551h-63z" />
<glyph unicode="=" horiz-adv-x="1132" d="M74 637v156h811v-156h-811zM74 965v155h811v-155h-811zM190 467v33h822v729h47v-762h-869z" />
<glyph unicode="&#x3e;" horiz-adv-x="905" d="M74 377l368 551l-342 512h187l340 -512l-371 -551h-182zM401 377l369 551l-342 512h64l339 -512l-366 -551h-64z" />
<glyph unicode="?" horiz-adv-x="1095" d="M74 1622q127 141 317 141q178 0 303 -127t125 -305q0 -102 -49 -193t-118.5 -161t-138.5 -139.5t-118 -157.5t-49 -186v-113h-156v113q0 119 49.5 223t119 179t139 142.5t119 143t49.5 149.5q0 115 -80 195t-195 80q-121 0 -203 -88zM188 272v47h297v175q0 74 49.5 147.5 t119 141t139 142t119 180t49.5 226.5q0 258 -197 432h61q197 -174 197 -432q0 -119 -49 -224.5t-119 -181t-139.5 -144t-118.5 -142.5t-49 -145v-222h-359zM190 -4v229h156v-229h-156zM313 1462q72 68 125 68q55 0 94 -39t39 -94q-37 72 -118 71q-59 0 -101 -45zM485 -4v229 h62v-229h-62z" />
<glyph unicode="@" horiz-adv-x="2146" d="M74 854q0 377 264 643t641 266t642 -265t265 -644q0 -195 -87 -329t-271 -134q-102 0 -221 74q-123 -141 -328 -141q-158 0 -282 98t-124 252q0 158 122 255t284 97q80 0 141 -22q-25 96 -89 158.5t-159 62.5q-129 0 -215 -117l-122 96q135 178 337 178q125 0 236 -82 q82 -61 126 -164.5t57.5 -200.5t28.5 -188.5t63.5 -146.5t140.5 -55q207 0 207 309q0 313 -219.5 532.5t-532.5 219.5q-311 0 -531.5 -220.5t-220.5 -531.5t220.5 -531.5t531.5 -220.5q186 0 346 86l86 -131q-201 -109 -432 -108q-377 0 -641 263t-264 642zM369 854 q0 215 131 377l28 -23q-115 -154 -114 -364q0 -29 9 -77t11 -67q8 -121 19 -155q-84 143 -84 309zM729 674q0 -88 79 -142.5t171 -54.5q157 0 227 113q-16 33 -24 65.5t-17.5 92t-11.5 69.5q-78 55 -174 55q-92 0 -171 -55t-79 -143zM868 674q0 25 40 41t71 16q16 0 25 -2 q-25 -2 -58 -18.5t-33 -36.5q1 -42 91 -56h-25q-29 0 -70 16.5t-41 39.5zM1145 1444q92 -27 102 -35q49 -35 87 -89t61.5 -100t45 -126t29 -119t22.5 -130t19 -112q6 -31 35 -43l-16 -6h-8q-47 0 -56 49l-53 291q-53 285 -268 420zM1358 279q18 -6 59 -15l176 -268h-47z M1499 1763h47q244 -141 385.5 -383.5t141.5 -525.5q0 -160 -50.5 -293t-165 -222t-278.5 -89q-23 0 -33 2q25 0 37 2q225 31 333.5 196.5t108.5 403.5q0 283 -141 525.5t-385 383.5z" />
<glyph unicode="A" d="M74 0l682 1853l680 -1853h-164l-66 180h-901l-65 -180h-166zM362 334h785l-391 1067zM387 -2l16 41h62l-16 -41h-62zM561 475l195 524l73 -200l-206 -324h-62zM922 1763h63l662 -1765h-62z" />
<glyph unicode="B" horiz-adv-x="1302" d="M74 0v1765h178q305 0 520 -215t215 -520q0 -233 -137 -424q176 -90 176 -287q0 -133 -93 -226t-224 -93h-635zM225 154h484q68 0 115.5 48.5t47.5 116.5q0 59 -37.5 105.5t-97.5 56.5q-209 -184 -485 -184q-18 0 -27 2v-145zM225 453h27q240 0 408.5 168.5t168.5 408.5 q0 254 -174 418t-430 164v-1159zM371 606v848q85 -25 112 -33l-55 -792q-31 -10 -57 -23zM723 1765h63q188 -119 295 -315.5t107 -419.5q0 -199 -92 -387q133 -140 133 -324q0 -188 -133 -321h-62q133 133 133 321q0 184 -133 324q90 184 90 387q0 223 -106.5 420 t-294.5 315z" />
<glyph unicode="C" horiz-adv-x="1742" d="M74 881q0 379 265 644t642 265q270 0 498 -150l-84 -131q-184 123 -414 123q-313 0 -532.5 -219t-219.5 -532q0 -311 220.5 -530.5t531.5 -219.5q227 0 414 123l84 -129q-223 -150 -498 -150q-248 0 -457 121t-329.5 330t-120.5 455zM369 881q0 256 179 435t433 179 q2 0 78 -31q-246 -14 -414 -190t-168 -424q0 -240 149.5 -403.5t387.5 -176.5h-33q-254 0 -433 178.5t-179 432.5zM1458 344q27 12 45 27l166 -248l-45 -29zM1458 1421l127 191l43 -31l-125 -186q-18 14 -45 26z" />
<glyph unicode="D" horiz-adv-x="1204" d="M74 -2v1774l82 -7q334 -27 554 -284.5t220 -597.5q0 -338 -221.5 -596t-552.5 -283zM227 172q240 53 393.5 257t153.5 454t-153.5 455.5t-393.5 258.5v-1425zM369 379v1012q24 -15 98 -70l-37 -895zM573 -2q229 139 362.5 376.5t133.5 508.5q0 266 -131 503.5t-356 378.5 h63q223 -141 354 -378.5t131 -503.5q0 -270 -133 -508t-362 -377h-62z" />
<glyph unicode="E" horiz-adv-x="1105" d="M74 0v1765h708v-153h-551v-936h555v-154h-555v-368h613v-154h-770zM369 295v127h542v395h62v-436h-541v-86h-63zM369 817v658h542v290h62v-331h-381zM969 -2v297h63v-297h-63z" />
<glyph unicode="F" horiz-adv-x="1046" d="M74 0v1765h704v-153h-551v-936h557v-154h-557v-522h-153zM360 817v658h543v290h64v-331h-383zM369 0v422h540v395h64v-436h-543v-381h-61z" />
<glyph unicode="G" horiz-adv-x="1789" d="M74 881q0 248 120.5 456.5t329.5 330.5t455 122q272 0 500 -150l-86 -131q-184 123 -414 123q-311 0 -531.5 -220t-220.5 -531.5t220.5 -530.5t531.5 -219q203 0 381 100v252h-393v156h546v-492q-268 -172 -534 -172q-375 0 -640 265.5t-265 640.5zM369 881 q0 256 178 435t432 179q2 0 78 -31q-244 -14 -412 -192t-168 -422q0 -240 148.5 -403.5t388.5 -176.5h-35q-254 0 -432 178.5t-178 432.5zM1460 1421l135 207l45 -29l-137 -204zM1532 -2q51 29 121 76v704h63v-704q-39 -27 -121 -76h-63z" />
<glyph unicode="H" horiz-adv-x="1826" d="M74 0v1765h155v-1126h1104v1126h156v-1765h-156v483h-1104v-483h-155zM369 0v344h852v-41h-777l-14 -303h-61zM369 778v987h125l-48 -987h-77zM1628 0v1765h125l-61 -1765h-64z" />
<glyph unicode="I" horiz-adv-x="567" d="M74 0v1767h153v-1767h-153zM369 0v1767h125l-62 -1767h-63z" />
<glyph unicode="J" horiz-adv-x="819" d="M74 0v154q104 0 178 73.5t74 178.5v1359h155v-1359q0 -168 -118.5 -287t-288.5 -119zM436 -2q184 166 185 408v1359h124l-61 -1359q-12 -254 -186 -408h-62z" />
<glyph unicode="K" horiz-adv-x="1587" d="M74 0v1765h157v-1144l854 1144h191l-748 -1005l629 -760h-199l-524 633l-207 -275v-358h-153zM369 0v313l71 95l31 -37l-39 -58v-313h-63zM373 1042v723h125l-64 -641zM707 766l743 999h63l-745 -999l631 -768h-62z" />
<glyph unicode="L" horiz-adv-x="1075" d="M74 0v1765h153v-1611h586v-154h-739zM367 295v1470h125l-62 -1470h-63zM938 -2v297h63v-297h-63z" />
<glyph unicode="M" horiz-adv-x="1959" d="M74 0v1837l813 -1550l813 1550v-1837h-146v1251l-667 -1276l-668 1276v-1251h-145zM301 1647h117l497 -1026l-28 -56zM350 0v721l121 -227l-63 -494h-58zM1047 -2l376 723v-111l-317 -612h-59zM1829 0v1647h57v-1647h-57z" />
<glyph unicode="N" horiz-adv-x="1724" d="M74 0v1829l1229 -1512v1405h151v-1828l-1229 1511v-1405h-151zM328 1722h59l780 -946v-74zM362 0v1022l142 -174l-82 -848h-60zM1589 -2v1724h62v-1724h-62z" />
<glyph unicode="O" horiz-adv-x="2160" d="M74 881q0 377 263 643t640 266q379 0 644 -266t265 -643q0 -375 -267 -640.5t-642 -265.5q-377 0 -640 263.5t-263 642.5zM227 881q0 -311 219.5 -530.5t530.5 -219.5q313 0 532.5 218t219.5 531.5t-219.5 532.5t-532.5 219t-531.5 -219t-218.5 -532zM369 881 q0 254 177 434t431 180q2 0 78 -31q-244 -14 -412 -192t-168 -422q0 -240 147.5 -402.5t387.5 -177.5h-33q-252 0 -430 179.5t-178 431.5zM1536 -2q231 145 359 377.5t128 505.5q0 270 -129 504.5t-356 379.5h61q229 -147 358.5 -379.5t129.5 -505t-129 -505t-361 -377.5 h-61z" />
<glyph unicode="P" horiz-adv-x="1263" d="M74 0v1765h180q305 0 520 -215t215 -520t-215 -519t-520 -214q-18 0 -27 2v-299h-153zM229 453h25q240 0 411 168.5t171 408.5q0 254 -175.5 418t-431.5 164v-1159zM369 0v166q326 41 541.5 287.5t215.5 576.5q0 225 -105.5 421t-295.5 314h63q190 -119 296 -314.5 t106 -420.5q0 -330 -216 -576.5t-542 -287.5v-166h-63zM373 606v848q51 -14 135 -57l-74 -768q-8 -4 -29.5 -11.5t-31.5 -11.5z" />
<glyph unicode="Q" horiz-adv-x="2162" d="M74 881q0 248 120.5 456.5t329.5 330.5t455 122q377 0 643 -266t266 -643q0 -215 -97 -406.5t-271 -320.5l120 -197l-131 -80l-120 197q-190 -98 -410 -99q-375 0 -640 265.5t-265 640.5zM227 880.5q0 -311.5 220.5 -530.5t531.5 -219q176 0 326 74l-111 180l131 82 l113 -182q139 109 217 265.5t78 330.5q0 313 -220.5 532t-533.5 219q-311 0 -531.5 -220t-220.5 -531.5zM369 881q0 256 178 435t432 179q4 0 80 -31q-244 -14 -413 -192t-169 -422q0 -240 147.5 -402.5t387.5 -177.5h-33q-254 0 -432 178.5t-178 432.5zM1540 1765h62 q229 -147 358 -379.5t129 -504.5q0 -446 -326 -756l58 -94l-56 -33h-63l57 33l-59 94q325 308 325 753q0 272 -129 508t-356 379z" />
<glyph unicode="R" horiz-adv-x="1265" d="M74 0v1765h182q305 0 519 -215t214 -520q0 -188 -92 -353t-252 -267l219 -359l-131 -80l-227 371q-131 -47 -238 -47q-16 0 -41 4v-299h-153zM227 453h29q240 0 410 169t170 408.5t-170 410.5t-410 171h-29v-1159zM369 0v166l73 12l7 -10q-12 0 -17 -2v-166h-63zM371 606 v848q51 -14 135 -57l-74 -768q-8 -4 -29.5 -11.5t-31.5 -11.5zM727 1765h64q188 -119 294.5 -315.5t106.5 -419.5q0 -190 -79 -361t-222 -294l215 -344l-209 -127h-61l206 127l-215 344q143 123 223 295t80 360q0 225 -106 421t-297 314z" />
<glyph unicode="S" horiz-adv-x="1095" d="M74 141l116 105q82 -92 203 -92q113 0 193 79.5t80 194.5q0 109 -72 186l-254 281q-147 164 -147 373q0 211 147 354t360 143v-153q-150 0 -252 -98.5t-102 -245.5q0 -98 49 -187.5t119 -158t139.5 -138t118.5 -161t49 -195.5q0 -176 -126 -302t-302 -126 q-190 0 -319 141zM487 1268q0 90 60.5 146t150.5 56h68v-8q-166 -41 -166 -225q0 -74 62 -145l235 -279q125 -147 125 -385q0 -260 -197 -430h-61q197 170 197 430q0 123 -49.5 230.5t-118 182t-138 141.5t-119 139.5t-49.5 146.5zM825 1464v301h64v-295q-33 0 -64 -6z" />
<glyph unicode="T" horiz-adv-x="1507" d="M74 1407v63h364v-63h-364zM74 1612v153h1171v-153h-508v-1612h-153v1612h-510zM877 0v1470h389l-326 -161v-1309h-63zM1370 1470v295h64v-295h-64z" />
<glyph unicode="U" horiz-adv-x="1765" d="M74 707v1058h155v-1058q0 -231 162 -392t391 -161q227 0 390 162.5t163 390.5v1058h154v-1058q0 -293 -207 -500t-500 -207q-295 0 -501.5 206t-206.5 501zM367 707v1058h172l-109 -1058q0 -4 -1 -11.5t-1 -11.5q0 -147 115.5 -259t269.5 -130h-31q-172 0 -293.5 120 t-121.5 292zM1241 -2q182 117 285.5 305.5t103.5 403.5v1058h62v-1058q0 -215 -103.5 -402.5t-283.5 -306.5h-64z" />
<glyph unicode="V" horiz-adv-x="1746" d="M74 1765h166l528 -1439l530 1439h166l-696 -1892zM387 1765h170l242 -950l-31 -86zM950 0l662 1765h61l-659 -1765h-64z" />
<glyph unicode="W" horiz-adv-x="2852" d="M74 1767h166l526 -1431l555 1583l553 -1583l528 1431h166l-696 -1876l-551 1563l-553 -1563zM387 1767h170l236 -931l-29 -91zM954 0l367 1034l31 -90l-334 -944h-64zM1524 1767h172l215 -931l-33 -91zM2068 0l650 1767h61l-649 -1767h-62z" />
<glyph unicode="X" horiz-adv-x="1882" d="M74 0l659 989l-518 776h184l426 -639l424 639h189l-520 -776l661 -989h-188l-566 848l-565 -848h-186zM426 0l399 598l58 -80l-394 -518h-63zM567 1765h172l119 -340l-33 -47zM1085 989l517 776h63l-518 -776l661 -989h-63z" />
<glyph unicode="Y" horiz-adv-x="2027" d="M74 1765h207l784 -893l489 893h177l-967 -1765h-178l399 727zM465 1765h170l426 -608l-21 -43zM920 -2l972 1767h62l-973 -1767h-61z" />
<glyph unicode="Z" horiz-adv-x="1740" d="M74 0l1073 1612h-973v153h1262l-1074 -1611h1043v-154h-1331zM182 1434v41h688l-26 -41h-662zM623 295l981 1470h63l-983 -1470h-61zM1530 -2v297h63v-297h-63z" />
<glyph unicode="[" horiz-adv-x="722" d="M74 -205v1970h385v-153h-232v-1663h234v-154h-387zM367 90v1372h125l-62 -1372h-63zM586 90h63v-297h-63v297zM586 1470v297h63v-297h-63z" />
<glyph unicode="\" horiz-adv-x="1093" d="M74 1767h153l598 -1767h-153zM365 1767h124l531 -1767h-64z" />
<glyph unicode="]" horiz-adv-x="782" d="M74 -51h233v1663h-231v153h385v-1970h-387v154zM582 -203l2 1968h125l-64 -1968h-63z" />
<glyph unicode="^" horiz-adv-x="73" />
<glyph unicode="_" horiz-adv-x="1024" d="M0 -10h1024v-154h-1024v154z" />
<glyph unicode="`" horiz-adv-x="634" d="M74 2234h233l254 -417h-112z" />
<glyph unicode="a" d="M74 0l682 1853l680 -1853h-164l-66 180h-901l-65 -180h-166zM362 334h785l-391 1067zM387 -2l16 41h62l-16 -41h-62zM561 475l195 524l73 -200l-206 -324h-62zM922 1763h63l662 -1765h-62z" />
<glyph unicode="b" horiz-adv-x="1302" d="M74 0v1765h178q305 0 520 -215t215 -520q0 -233 -137 -424q176 -90 176 -287q0 -133 -93 -226t-224 -93h-635zM225 154h484q68 0 115.5 48.5t47.5 116.5q0 59 -37.5 105.5t-97.5 56.5q-209 -184 -485 -184q-18 0 -27 2v-145zM225 453h27q240 0 408.5 168.5t168.5 408.5 q0 254 -174 418t-430 164v-1159zM371 606v848q85 -25 112 -33l-55 -792q-31 -10 -57 -23zM723 1765h63q188 -119 295 -315.5t107 -419.5q0 -199 -92 -387q133 -140 133 -324q0 -188 -133 -321h-62q133 133 133 321q0 184 -133 324q90 184 90 387q0 223 -106.5 420 t-294.5 315z" />
<glyph unicode="c" horiz-adv-x="1742" d="M74 881q0 379 265 644t642 265q270 0 498 -150l-84 -131q-184 123 -414 123q-313 0 -532.5 -219t-219.5 -532q0 -311 220.5 -530.5t531.5 -219.5q227 0 414 123l84 -129q-223 -150 -498 -150q-248 0 -457 121t-329.5 330t-120.5 455zM369 881q0 256 179 435t433 179 q2 0 78 -31q-246 -14 -414 -190t-168 -424q0 -240 149.5 -403.5t387.5 -176.5h-33q-254 0 -433 178.5t-179 432.5zM1458 344q27 12 45 27l166 -248l-45 -29zM1458 1421l127 191l43 -31l-125 -186q-18 14 -45 26z" />
<glyph unicode="d" horiz-adv-x="1204" d="M74 -2v1774l82 -7q334 -27 554 -284.5t220 -597.5q0 -338 -221.5 -596t-552.5 -283zM227 172q240 53 393.5 257t153.5 454t-153.5 455.5t-393.5 258.5v-1425zM369 379v1012q24 -15 98 -70l-37 -895zM573 -2q229 139 362.5 376.5t133.5 508.5q0 266 -131 503.5t-356 378.5 h63q223 -141 354 -378.5t131 -503.5q0 -270 -133 -508t-362 -377h-62z" />
<glyph unicode="e" horiz-adv-x="1105" d="M74 0v1765h708v-153h-551v-936h555v-154h-555v-368h613v-154h-770zM369 295v127h542v395h62v-436h-541v-86h-63zM369 817v658h542v290h62v-331h-381zM969 -2v297h63v-297h-63z" />
<glyph unicode="f" horiz-adv-x="1046" d="M74 0v1765h704v-153h-551v-936h557v-154h-557v-522h-153zM360 817v658h543v290h64v-331h-383zM369 0v422h540v395h64v-436h-543v-381h-61z" />
<glyph unicode="g" horiz-adv-x="1789" d="M74 881q0 248 120.5 456.5t329.5 330.5t455 122q272 0 500 -150l-86 -131q-184 123 -414 123q-311 0 -531.5 -220t-220.5 -531.5t220.5 -530.5t531.5 -219q203 0 381 100v252h-393v156h546v-492q-268 -172 -534 -172q-375 0 -640 265.5t-265 640.5zM369 881 q0 256 178 435t432 179q2 0 78 -31q-244 -14 -412 -192t-168 -422q0 -240 148.5 -403.5t388.5 -176.5h-35q-254 0 -432 178.5t-178 432.5zM1460 1421l135 207l45 -29l-137 -204zM1532 -2q51 29 121 76v704h63v-704q-39 -27 -121 -76h-63z" />
<glyph unicode="h" horiz-adv-x="1826" d="M74 0v1765h155v-1126h1104v1126h156v-1765h-156v483h-1104v-483h-155zM369 0v344h852v-41h-777l-14 -303h-61zM369 778v987h125l-48 -987h-77zM1628 0v1765h125l-61 -1765h-64z" />
<glyph unicode="i" horiz-adv-x="567" d="M74 0v1767h153v-1767h-153zM369 0v1767h125l-62 -1767h-63z" />
<glyph unicode="j" horiz-adv-x="819" d="M74 0v154q104 0 178 73.5t74 178.5v1359h155v-1359q0 -168 -118.5 -287t-288.5 -119zM436 -2q184 166 185 408v1359h124l-61 -1359q-12 -254 -186 -408h-62z" />
<glyph unicode="k" horiz-adv-x="1587" d="M74 0v1765h157v-1144l854 1144h191l-748 -1005l629 -760h-199l-524 633l-207 -275v-358h-153zM369 0v313l71 95l31 -37l-39 -58v-313h-63zM373 1042v723h125l-64 -641zM707 766l743 999h63l-745 -999l631 -768h-62z" />
<glyph unicode="l" horiz-adv-x="1075" d="M74 0v1765h153v-1611h586v-154h-739zM367 295v1470h125l-62 -1470h-63zM938 -2v297h63v-297h-63z" />
<glyph unicode="m" horiz-adv-x="1959" d="M74 0v1837l813 -1550l813 1550v-1837h-146v1251l-667 -1276l-668 1276v-1251h-145zM301 1647h117l497 -1026l-28 -56zM350 0v721l121 -227l-63 -494h-58zM1047 -2l376 723v-111l-317 -612h-59zM1829 0v1647h57v-1647h-57z" />
<glyph unicode="n" horiz-adv-x="1724" d="M74 0v1829l1229 -1512v1405h151v-1828l-1229 1511v-1405h-151zM328 1722h59l780 -946v-74zM362 0v1022l142 -174l-82 -848h-60zM1589 -2v1724h62v-1724h-62z" />
<glyph unicode="o" horiz-adv-x="2160" d="M74 881q0 377 263 643t640 266q379 0 644 -266t265 -643q0 -375 -267 -640.5t-642 -265.5q-377 0 -640 263.5t-263 642.5zM227 881q0 -311 219.5 -530.5t530.5 -219.5q313 0 532.5 218t219.5 531.5t-219.5 532.5t-532.5 219t-531.5 -219t-218.5 -532zM369 881 q0 254 177 434t431 180q2 0 78 -31q-244 -14 -412 -192t-168 -422q0 -240 147.5 -402.5t387.5 -177.5h-33q-252 0 -430 179.5t-178 431.5zM1536 -2q231 145 359 377.5t128 505.5q0 270 -129 504.5t-356 379.5h61q229 -147 358.5 -379.5t129.5 -505t-129 -505t-361 -377.5 h-61z" />
<glyph unicode="p" horiz-adv-x="1263" d="M74 0v1765h180q305 0 520 -215t215 -520t-215 -519t-520 -214q-18 0 -27 2v-299h-153zM229 453h25q240 0 411 168.5t171 408.5q0 254 -175.5 418t-431.5 164v-1159zM369 0v166q326 41 541.5 287.5t215.5 576.5q0 225 -105.5 421t-295.5 314h63q190 -119 296 -314.5 t106 -420.5q0 -330 -216 -576.5t-542 -287.5v-166h-63zM373 606v848q51 -14 135 -57l-74 -768q-8 -4 -29.5 -11.5t-31.5 -11.5z" />
<glyph unicode="q" horiz-adv-x="2162" d="M74 881q0 248 120.5 456.5t329.5 330.5t455 122q377 0 643 -266t266 -643q0 -215 -97 -406.5t-271 -320.5l120 -197l-131 -80l-120 197q-190 -98 -410 -99q-375 0 -640 265.5t-265 640.5zM227 880.5q0 -311.5 220.5 -530.5t531.5 -219q176 0 326 74l-111 180l131 82 l113 -182q139 109 217 265.5t78 330.5q0 313 -220.5 532t-533.5 219q-311 0 -531.5 -220t-220.5 -531.5zM369 881q0 256 178 435t432 179q4 0 80 -31q-244 -14 -413 -192t-169 -422q0 -240 147.5 -402.5t387.5 -177.5h-33q-254 0 -432 178.5t-178 432.5zM1540 1765h62 q229 -147 358 -379.5t129 -504.5q0 -446 -326 -756l58 -94l-56 -33h-63l57 33l-59 94q325 308 325 753q0 272 -129 508t-356 379z" />
<glyph unicode="r" horiz-adv-x="1265" d="M74 0v1765h182q305 0 519 -215t214 -520q0 -188 -92 -353t-252 -267l219 -359l-131 -80l-227 371q-131 -47 -238 -47q-16 0 -41 4v-299h-153zM227 453h29q240 0 410 169t170 408.5t-170 410.5t-410 171h-29v-1159zM369 0v166l73 12l7 -10q-12 0 -17 -2v-166h-63zM371 606 v848q51 -14 135 -57l-74 -768q-8 -4 -29.5 -11.5t-31.5 -11.5zM727 1765h64q188 -119 294.5 -315.5t106.5 -419.5q0 -190 -79 -361t-222 -294l215 -344l-209 -127h-61l206 127l-215 344q143 123 223 295t80 360q0 225 -106 421t-297 314z" />
<glyph unicode="s" horiz-adv-x="1095" d="M74 141l116 105q82 -92 203 -92q113 0 193 79.5t80 194.5q0 109 -72 186l-254 281q-147 164 -147 373q0 211 147 354t360 143v-153q-150 0 -252 -98.5t-102 -245.5q0 -98 49 -187.5t119 -158t139.5 -138t118.5 -161t49 -195.5q0 -176 -126 -302t-302 -126 q-190 0 -319 141zM487 1268q0 90 60.5 146t150.5 56h68v-8q-166 -41 -166 -225q0 -74 62 -145l235 -279q125 -147 125 -385q0 -260 -197 -430h-61q197 170 197 430q0 123 -49.5 230.5t-118 182t-138 141.5t-119 139.5t-49.5 146.5zM825 1464v301h64v-295q-33 0 -64 -6z" />
<glyph unicode="t" horiz-adv-x="1507" d="M74 1407v63h364v-63h-364zM74 1612v153h1171v-153h-508v-1612h-153v1612h-510zM877 0v1470h389l-326 -161v-1309h-63zM1370 1470v295h64v-295h-64z" />
<glyph unicode="u" horiz-adv-x="1765" d="M74 707v1058h155v-1058q0 -231 162 -392t391 -161q227 0 390 162.5t163 390.5v1058h154v-1058q0 -293 -207 -500t-500 -207q-295 0 -501.5 206t-206.5 501zM367 707v1058h172l-109 -1058q0 -4 -1 -11.5t-1 -11.5q0 -147 115.5 -259t269.5 -130h-31q-172 0 -293.5 120 t-121.5 292zM1241 -2q182 117 285.5 305.5t103.5 403.5v1058h62v-1058q0 -215 -103.5 -402.5t-283.5 -306.5h-64z" />
<glyph unicode="v" horiz-adv-x="1746" d="M74 1765h166l528 -1439l530 1439h166l-696 -1892zM387 1765h170l242 -950l-31 -86zM950 0l662 1765h61l-659 -1765h-64z" />
<glyph unicode="w" horiz-adv-x="2852" d="M74 1767h166l526 -1431l555 1583l553 -1583l528 1431h166l-696 -1876l-551 1563l-553 -1563zM387 1767h170l236 -931l-29 -91zM954 0l367 1034l31 -90l-334 -944h-64zM1524 1767h172l215 -931l-33 -91zM2068 0l650 1767h61l-649 -1767h-62z" />
<glyph unicode="x" horiz-adv-x="1882" d="M74 0l659 989l-518 776h184l426 -639l424 639h189l-520 -776l661 -989h-188l-566 848l-565 -848h-186zM426 0l399 598l58 -80l-394 -518h-63zM567 1765h172l119 -340l-33 -47zM1085 989l517 776h63l-518 -776l661 -989h-63z" />
<glyph unicode="y" horiz-adv-x="2027" d="M74 1765h207l784 -893l489 893h177l-967 -1765h-178l399 727zM465 1765h170l426 -608l-21 -43zM920 -2l972 1767h62l-973 -1767h-61z" />
<glyph unicode="z" horiz-adv-x="1740" d="M74 0l1073 1612h-973v153h1262l-1074 -1611h1043v-154h-1331zM182 1434v41h688l-26 -41h-662zM623 295l981 1470h63l-983 -1470h-61zM1530 -2v297h63v-297h-63z" />
<glyph unicode="{" horiz-adv-x="747" d="M74 739v43q96 16 169.5 74.5t73.5 151.5q0 55 -24.5 166.5t-24.5 168.5q0 164 120 282t286 138v-41q-106 -18 -178 -85.5t-72 -172.5q0 -57 21.5 -169.5t21.5 -172.5q0 -127 -88 -220t-217 -138q131 -53 218 -145.5t87 -219.5q0 -57 -21.5 -169.5t-21.5 -170.5 q0 -104 69.5 -170.5t180.5 -93.5v-39q-168 25 -286 140.5t-118 279.5q0 57 24.5 166t24.5 166q0 96 -71.5 154.5t-173.5 76.5z" />
<glyph unicode="|" horiz-adv-x="147" />
<glyph unicode="}" horiz-adv-x="747" d="M74 -205q111 27 180.5 93.5t69.5 170.5q0 57 -21.5 170t-21.5 170q0 127 87 219.5t218 145.5q-129 45 -217 138t-88 220q0 59 21.5 172t21.5 170q0 104 -72 172t-178 86v41q166 -20 285.5 -138t119.5 -282q0 -57 -24.5 -168.5t-24.5 -166.5q0 -92 74 -151t170 -75v-43 q-102 -18 -174 -76.5t-72 -154.5q0 -57 24.5 -166t24.5 -166q0 -164 -117.5 -279.5t-285.5 -140.5v39z" />
<glyph unicode="~" horiz-adv-x="147" />
<glyph unicode="&#xa1;" horiz-adv-x="503" d="M74 -215v1382h155v-1382h-155zM74 1229v31h356v-1475h-61v1444h-295zM74 1323v225h155v-225h-155zM369 1323v225h61v-225h-61z" />
<glyph unicode="&#xa2;" horiz-adv-x="1253" d="M74 920q0 225 145.5 398t368.5 214v231h155v-221q135 -13 252 -74l-88 -129q-74 39 -164 45v-933q82 6 160 45l88 -129q-127 -63 -248 -72v-295h-155v303q-223 41 -368.5 215t-145.5 402zM227 919.5q0 -161.5 101.5 -289.5t259.5 -167v911q-158 -37 -259.5 -165 t-101.5 -289.5zM369 920q0 123 80 213v-109q0 -14 -9.5 -50t-9.5 -54.5t9.5 -55.5t9.5 -51v-111q-80 92 -80 218zM881 0v176q133 33 237 105l-237 358v559l237 358q-121 76 -237 103v104h63v-104q119 -27 236 -103l-236 -358v-559l236 -358q-98 -68 -236 -105v-176h-63z" />
<glyph unicode="&#xa3;" horiz-adv-x="1185" d="M74 428v154h162v772q0 170 118.5 289.5t286.5 119.5v-157q-104 0 -177 -74t-73 -178v-772h285v-154h-285v-272h533v-156h-688v428h-162zM530 721v633q0 45 29 78.5t72 33.5h61q-43 -4 -71.5 -36.5t-28.5 -75.5v-633h-62zM532 291v24h269v406h63v-430h-332zM766 1468v295 h63v-295h-63zM1049 0v291h63v-291h-63z" />
<glyph unicode="&#xa4;" horiz-adv-x="1845" d="M74 676v155h168q-2 16 -2 47t2 48h-168v155h188q72 309 319.5 506t565.5 197q231 0 418 -103l-84 -129q-160 78 -334 78q-256 0 -455.5 -151.5t-269.5 -397.5h1141v-155h-1168v-95h1043v-155h-1016q70 -244 271.5 -396.5t453.5 -152.5q174 0 334 78l84 -129 q-195 -102 -418 -103q-317 0 -565 197t-320 506h-188zM627 563h936v236h125v422h63v-447h-125v-235h-924q172 -258 478 -271h-33q-158 0 -304.5 80t-215.5 215zM639 1221q182 272 524 272q4 0 8.5 -1t8.5 -1q-309 -16 -478 -270h-63zM1501 342q29 16 43 27l228 -346h-62z M1501 1417l209 320h62l-228 -346q-14 10 -43 26z" />
<glyph unicode="&#xa5;" horiz-adv-x="2260" d="M74 1763h207l784 -893l489 893h179l-375 -682h639v-155h-723l-53 -95h776v-155h-862l-373 -678h-176l372 678h-852v155h787l-84 95h-703v155h568zM465 1763h172l426 -608l-25 -43zM922 -4l309 567h895v658h61v-682h-907l-297 -543h-61zM1581 1200l309 563h64l-309 -563 h-64z" />
<glyph unicode="&#xa6;" horiz-adv-x="73" />
<glyph unicode="&#xa7;" horiz-adv-x="4444" d="M55 0v1536h262v-1536h-262zM561 565q25 -98 71 -185t110.5 -160t146.5 -129t174 -91h575q92 35 174 91t146.5 129t111 160t70.5 185h-250q-31 -82 -84 -151.5t-123.5 -119.5t-155.5 -78t-177.5 -28t-176 28t-154.5 78t-124 119.5t-84 151.5h-250zM561 604v314h195v-62 h-115v-68h102v-65h-104v-119h-78zM561 958h252q31 82 83 152t123 120t154.5 77.5t176 27.5t177.5 -27.5t155.5 -77.5t123 -120t82.5 -152h252q-25 102 -75 193.5t-120.5 166.5t-157.5 130t-185 88h-502q-98 -33 -185.5 -88t-158 -130t-120.5 -166t-75 -194zM1174 745.5 q0 -57.5 25.5 -90t55.5 -49.5q37 -20 84 -24q49 4 88 24q35 16 63 51t28 100.5t-26 100.5t-56 51q-37 21 -80 25q-29 0 -60.5 -8t-58.5 -28.5t-45 -57.5t-18 -94.5zM1253 752q0 31 9.5 51t23.5 32.5t31.5 16.5t32.5 4q23 -2 43 -12q16 -10 30.5 -30.5t14.5 -55.5 q0 -37 -15.5 -56.5t-33.5 -29.5q-23 -11 -48 -13q-25 4 -45 15q-16 10 -29.5 27.5t-13.5 50.5zM2060 604v314h90l146 -209v209h78v-314h-72l-166 213v-213h-76zM2306 565q49 -197 183 -345t321 -220h575q186 72 319.5 220.5t182.5 344.5h-252q-31 -82 -83 -151.5 t-122.5 -119.5t-155.5 -78t-177.5 -28t-177.5 28t-155.5 78t-122.5 119.5t-83 151.5h-252zM2306 958h252q31 82 83 152t122.5 120t155.5 77.5t177.5 27.5t177.5 -27.5t155.5 -77.5t122.5 -120t83 -152h252q-25 102 -75 193.5t-120.5 166.5t-157.5 130t-188 88h-499 q-100 -33 -187.5 -88t-158 -130t-120.5 -166t-75 -194zM2984 842v76h235v-78h-65v-236h-105v238h-65zM3656 827q0 27 12 45.5t31.5 29.5t44 15.5t47.5 4.5q49 0 80 -13l-6 -63q-29 14 -68 14q-16 0 -35.5 -4t-19.5 -25q0 -18 22.5 -25t50 -16.5t50 -27t22.5 -60.5 q0 -59 -41 -79.5t-94 -20.5q-23 0 -47.5 2t-46.5 10l8 68q16 -8 37.5 -14t48.5 -6q20 0 35.5 6t15.5 24q0 20 -23.5 28.5t-51 18t-50 27.5t-22.5 61zM4137 0v1536h250v-1536h-250z" />
<glyph unicode="&#xa8;" horiz-adv-x="706" d="M74 1937q0 47 34.5 82t82 35t82 -35t34.5 -82q0 -49 -33.5 -83.5t-83 -34.5t-83 34.5t-33.5 83.5zM397 1937.5q0 49.5 35 83t84 33.5q47 0 82 -35t35 -82q0 -49 -34 -83.5t-83 -34.5t-84 34.5t-35 84z" />
<glyph unicode="&#xa9;" horiz-adv-x="1742" d="M74 880.5q0 331.5 232.5 565t564 233.5t565 -233.5t233.5 -565t-233.5 -564t-565 -232.5t-564 232.5t-232.5 564zM123 880.5q0 -311.5 219 -529.5t528 -218q311 0 530.5 219t219.5 529q0 311 -220 530t-529.5 219t-528.5 -219t-219 -530.5zM311 862q0 233 164 397 t395 164q164 0 308 -92l-52 -82q-113 76 -256 76q-195 0 -328.5 -134t-133.5 -329q0 -193 135 -328t327 -135q135 0 256 76l52 -78q-133 -92 -308 -92q-231 0 -395 163t-164 394zM494 862.5q0 157.5 110.5 268t265.5 110.5q4 0 26 -9t24 -9q-152 -10 -255.5 -119 t-103.5 -260q0 -147 92 -248.5t238 -110.5h-21q-158 0 -267 110t-109 267.5zM1165 532q16 6 27 17l102 -154l-26 -18zM1165 1196l78 117l27 -19l-78 -114z" />
<glyph unicode="&#xaa;" horiz-adv-x="1150" d="M74 815l364 969h62l364 -969h-164l-34 90h-396l-32 -90h-164zM328 1059h282l-141 385zM645 1790h64l368 -977h-63z" />
<glyph unicode="&#xab;" horiz-adv-x="819" d="M74 879l348 516h57l-203 -516l203 -514h-57zM340 879l348 516h57l-202 -516l202 -514h-57z" />
<glyph unicode="&#xac;" horiz-adv-x="1507" d="M74 600v64h872v-64h-872zM74 805v153h1171v-610h-153v457h-1018zM1370 348v610h64v-610h-64z" />
<glyph unicode="&#xad;" horiz-adv-x="722" d="M74 801v155h401v-155h-401zM190 631v33h412v401h47v-434h-459z" />
<glyph unicode="&#xae;" horiz-adv-x="1112" d="M74 1286q0 199 141 341t340 142t341 -142t142 -341t-141 -340t-342 -141q-199 0 -340 141t-141 340zM123 1286q0 -180 126 -306t306 -126t307 126t127 306t-127 306t-307 126t-306 -126t-126 -306zM428 934v708h74q123 0 209 -85.5t86 -206.5q0 -76 -37 -142.5 t-103 -107.5l88 -146l-53 -30l-90 147q-68 -18 -96 -18q-4 0 -9 1t-8 1v-121h-61zM489 1116h13q96 0 164.5 69t68.5 165q0 94 -68.5 162.5t-164.5 68.5h-13v-465z" />
<glyph unicode="&#xaf;" horiz-adv-x="73" />
<glyph unicode="&#xb0;" horiz-adv-x="538" d="M74 1561q0 82 57 139t137 57q82 0 139.5 -57.5t57.5 -139t-57.5 -138t-139.5 -56.5q-80 0 -137 57.5t-57 137.5zM203 1560.5q0 -28.5 19.5 -47t45.5 -18.5q29 0 48.5 19.5t19.5 46.5q0 29 -19.5 48t-48.5 19q-27 0 -46 -19.5t-19 -48z" />
<glyph unicode="&#xb1;" horiz-adv-x="1507" d="M74 0v156h1179v-156h-1179zM74 600v64h364v-64h-364zM74 805v153h510v486h153v-486h508v-153h-508v-539h-153v539h-510zM877 266v398h389l-326 -162v-236h-63zM877 1083v363h63v-363h-63zM1370 664v294h64v-294h-64zM1372 0v264h58v-264h-58z" />
<glyph unicode="&#xb2;" horiz-adv-x="761" d="M74 899l368 379q70 74 70 170q0 100 -69.5 170t-170.5 70q-76 0 -133 -39l-43 63q86 53 176 53q131 0 223.5 -93t92.5 -224q0 -133 -90 -223l-244 -248h303v-78h-483zM164 1595q61 33 108 33q78 0 125 -53t47 -133q-2 70 -53 117t-119 47q-51 0 -96 -29zM416 1042 q18 18 59 59.5t59.5 62t47 58.5t42 66.5t24.5 71.5t11 88q0 197 -170 317h31q78 -53 123 -138t45 -179q0 -47 -11 -89t-23.5 -70.5t-42 -67.5t-47 -57.5t-60.5 -61.5l-60 -60h-28zM618 899v143h33v-143h-33z" />
<glyph unicode="&#xb3;" horiz-adv-x="735" d="M74 940l43 64q57 -39 131 -39q98 0 168.5 69.5t70.5 170t-70.5 170t-168.5 69.5h-78l195 244h-240v77h397l-203 -254q106 -25 175 -110.5t69 -196.5q0 -131 -92 -223t-223 -92q-98 0 -174 51zM432 1542l178 223h33l-182 -223q94 -51 147.5 -141.5t53.5 -196.5 q0 -188 -150 -305h-31q152 119 152 305q0 106 -54.5 196.5t-146.5 141.5z" />
<glyph unicode="&#xb4;" horiz-adv-x="634" d="M74 1817l254 417h233l-375 -417h-112z" />
<glyph unicode="&#xb6;" horiz-adv-x="1347" d="M74 1235q0 219 155.5 373.5t372.5 154.5h672v-65h-92q-49 0 -84 -35t-35 -84v-1864h-125v1950h-143v-1950h-119v992h-74q-217 0 -372.5 154.5t-155.5 373.5z" />
<glyph unicode="&#xb7;" horiz-adv-x="505" d="M74 539v45h297v340h61v-385h-358zM76 694v230h155v-230h-155z" />
<glyph unicode="&#xb8;" horiz-adv-x="657" d="M74 -475q96 0 199.5 28.5t103.5 98.5q0 33 -29 59.5t-72 39.5t-80.5 20.5t-70.5 7.5l154 260h124l-110 -191q100 -10 195.5 -58t95.5 -130q0 -57 -44 -99t-114 -60.5t-128 -25.5t-114 -7q-16 0 -49 1t-49 1z" />
<glyph unicode="&#xb9;" horiz-adv-x="354" d="M74 903v866h76v-866h-76zM219 903v866h62l-31 -866h-31z" />
<glyph unicode="&#xba;" horiz-adv-x="1331" d="M74 1296.5q0 204.5 143 348t348 143.5t348.5 -143.5t143.5 -348t-143.5 -349t-348.5 -144.5t-348 144.5t-143 349zM227 1296q0 -143 97.5 -240.5t241 -97.5t240.5 97.5t97 240.5q0 139 -99 237.5t-238.5 98.5t-239 -98t-99.5 -238zM367 1294q0 92 60 146.5t155 54.5 q2 0 7 -1t7 -1q-74 -14 -121 -69.5t-47 -129t48 -128t122 -66.5q-10 -2 -31 -2q-86 0 -143 55t-57 141zM956 1790h64q237 -201 237 -506q0 -285 -229 -471h-61q229 190 229 473q0 301 -240 504z" />
<glyph unicode="&#xbb;" horiz-adv-x="819" d="M74 365l202 514l-202 516h57l348 -516l-348 -514h-57zM340 365l203 514l-203 516h57l348 -516l-348 -514h-57z" />
<glyph unicode="&#xbc;" horiz-adv-x="1855" d="M74 526v1239h106v-1239h-106zM242 0l739 1769h109l-742 -1769h-106zM281 526v1239h86l-43 -1239h-43zM449 0l739 1769h88l-784 -1769h-43zM750 365l684 870h106v-762h111v-108h-111v-365h-108v365h-682zM973 473h459v584zM1174 569l159 205v-90l-116 -115h-43zM1638 0 v266h43v-266h-43zM1638 569v666h43v-666h-43zM1739 266v303h43v-303h-43z" />
<glyph unicode="&#xbd;" horiz-adv-x="2070" d="M74 526v1239h106v-1239h-106zM242 0l739 1769h109l-742 -1769h-106zM281 526v1239h86l-43 -1239h-43zM449 0l739 1769h88l-784 -1769h-43zM1120 0l527 541q100 104 100 243q0 143 -100.5 243.5t-243.5 100.5q-106 0 -191 -57l-61 90q121 78 252 78q186 0 319 -133 t133 -321.5t-131 -319.5l-348 -354h434v-111h-690zM1249 995q94 47 154 47q111 0 178.5 -76.5t67.5 -189.5q-4 98 -77 166t-169 68q-74 0 -137 -41zM1610 207q25 25 84 85t83.5 87t67.5 82t61.5 96t34 101.5t15.5 125.5q0 135 -64.5 254t-177.5 201h43q113 -78 176.5 -199 t63.5 -256q0 -66 -15.5 -127t-33 -101t-60.5 -96.5t-65.5 -81t-85 -87l-84.5 -84.5h-43zM1898 0v207h46v-207h-46z" />
<glyph unicode="&#xbe;" horiz-adv-x="2281" d="M74 586l61 90q86 -55 189 -55q141 0 241.5 100t100.5 244q0 141 -100.5 241.5t-241.5 100.5h-113l281 348h-342v110h567l-291 -362q154 -35 251 -157.5t97 -280.5q0 -188 -132 -320.5t-318 -132.5q-135 0 -250 74zM586 1446l256 319h45l-258 -319q133 -72 209.5 -201.5 t76.5 -279.5q0 -129 -56 -244t-159 -193h-43q102 78 158.5 193t56.5 244q0 150 -76.5 279.5t-209.5 201.5zM668 0l739 1769h109l-742 -1769h-106zM874 0l740 1769h88l-784 -1769h-44zM1176 365l684 870h106v-762h111v-108h-111v-365h-108v365h-682zM1399 473h459v584z M1599 569l160 205v-90l-117 -115h-43zM2064 0v266h43v-266h-43zM2064 569v666h43v-666h-43zM2165 266v303h43v-303h-43z" />
<glyph unicode="&#xbf;" horiz-adv-x="1150" d="M74 203q0 102 48 194t117.5 162t139.5 139.5t118 157.5t48 186v113h157v-113q0 -119 -49 -222t-118.5 -178t-139 -142.5t-119 -143t-49.5 -153.5q0 -113 81 -194t194 -81q119 0 203 90l112 -102q-123 -141 -315 -141q-180 0 -304 124t-124 304zM365 207q0 43 49 102.5 t118.5 128t138 150.5t118 196.5t49.5 239.5v129h63v-129q0 -123 -49 -237.5t-118.5 -196.5t-139.5 -151.5t-119 -129t-49 -102.5q0 -111 106 -135q-20 -4 -32 -4q-55 0 -95 42t-40 97zM545 1309v231h157v-231h-157zM838 1249v291h63v-291h-63zM870 -225q23 18 47.5 42.5 t54 57.5t42.5 47l-115 107h62l116 -107q-57 -63 -143 -147h-64z" />
<glyph unicode="&#xc0;" d="M74 0l682 1853l680 -1853h-164l-66 180h-901l-65 -180h-166zM362 334h785l-391 1067zM387 -2l16 41h62l-16 -41h-62zM481 2234h234l254 -417h-113zM561 475l195 524l73 -200l-206 -324h-62zM922 1763h63l662 -1765h-62z" />
<glyph unicode="&#xc1;" d="M74 0l682 1853l680 -1853h-164l-66 180h-901l-65 -180h-166zM362 334h785l-391 1067zM387 -2l16 41h62l-16 -41h-62zM561 475l195 524l73 -200l-206 -324h-62zM803 1817l254 417h233l-375 -417h-112zM922 1763h63l662 -1765h-62z" />
<glyph unicode="&#xc2;" d="M74 0l682 1853l680 -1853h-164l-66 180h-901l-65 -180h-166zM362 334h785l-391 1067zM375 1827l325 407h113l326 -407h-86l-297 244l-295 -244h-86zM387 -2l16 41h62l-16 -41h-62zM561 475l195 524l73 -200l-206 -324h-62zM922 1763h63l662 -1765h-62z" />
<glyph unicode="&#xc3;" d="M74 0l682 1853l680 -1853h-164l-66 180h-901l-65 -180h-166zM362 334h785l-391 1067zM387 -2l16 41h62l-16 -41h-62zM483 1821v14q0 94 64.5 158.5t161.5 64.5q61 0 190 -51t180 -51q55 0 80 24.5t39 79.5h37q0 -98 -63.5 -165.5t-159.5 -67.5q-61 0 -192.5 52t-178.5 52 q-98 0 -123 -110h-35zM561 475l195 524l73 -200l-206 -324h-62zM922 1763h63l662 -1765h-62z" />
<glyph unicode="&#xc4;" d="M74 0l682 1853l680 -1853h-164l-66 180h-901l-65 -180h-166zM362 334h785l-391 1067zM387 -2l16 41h62l-16 -41h-62zM479 1937q0 47 35 82t82 35t82 -35t35 -82q0 -49 -34 -83.5t-83 -34.5t-83 34.5t-34 83.5zM561 475l195 524l73 -200l-206 -324h-62zM803 1937.5 q0 49.5 34.5 83t84.5 33.5q47 0 81.5 -35t34.5 -82q0 -49 -33.5 -83.5t-83 -34.5t-84 34.5t-34.5 84zM922 1763h63l662 -1765h-62z" />
<glyph unicode="&#xc5;" d="M74 0l682 1853l680 -1853h-164l-66 180h-901l-65 -180h-166zM362 334h785l-391 1067zM387 -2l16 41h62l-16 -41h-62zM510 2054.5q0 102.5 73.5 176t176 73.5t175.5 -73.5t73 -176t-73 -175.5t-175.5 -73t-176 73t-73.5 175.5zM561 475l195 524l73 -200l-206 -324h-62z M602 2054.5q0 -63.5 47 -110t110.5 -46.5t109.5 46.5t46 109.5q0 66 -46 112t-109.5 46t-110.5 -47t-47 -110.5zM922 1763h63l662 -1765h-62z" />
<glyph unicode="&#xc6;" horiz-adv-x="2256" d="M74 0l1190 1763h669v-157h-551v-932h555v-156h-555v-362h615v-156h-770v518h-615l-352 -518h-186zM428 0l258 379h64l-261 -379h-61zM715 674h512v756zM979 813l108 162v-94l-47 -68h-61zM1520 291v88h542v434h64v-465h-543v-57h-63zM1520 813v655h538v295h64v-325h-410z M2122 0v291h61v-291h-61z" />
<glyph unicode="&#xc7;" horiz-adv-x="1742" d="M74 881q0 379 265 644t642 265q270 0 498 -150l-84 -131q-184 123 -414 123q-313 0 -532.5 -219t-219.5 -532q0 -311 220.5 -530.5t531.5 -219.5q227 0 414 123l84 -129q-223 -150 -498 -150q-248 0 -457 121t-329.5 330t-120.5 455zM369 881q0 256 179 435t433 179 q2 0 78 -31q-246 -14 -414 -190t-168 -424q0 -240 149.5 -403.5t387.5 -176.5h-33q-254 0 -433 178.5t-179 432.5zM643 -455q96 0 199.5 29t103.5 98q0 33 -28.5 59.5t-71.5 40t-81 20.5t-71 7l154 260h125l-111 -190q100 -10 195.5 -58t95.5 -130q0 -57 -44 -99.5 t-113.5 -61t-128 -25.5t-113.5 -7q-16 0 -49 1t-50 1zM1458 344q27 12 45 27l166 -248l-45 -29zM1458 1421l127 191l43 -31l-125 -186q-18 14 -45 26z" />
<glyph unicode="&#xc8;" horiz-adv-x="1105" d="M74 0v1765h708v-153h-551v-936h555v-154h-555v-368h613v-154h-770zM309 2234h234l254 -417h-113zM369 295v127h542v395h62v-436h-541v-86h-63zM369 817v658h542v290h62v-331h-381zM969 -2v297h63v-297h-63z" />
<glyph unicode="&#xc9;" horiz-adv-x="1105" d="M74 0v1765h708v-153h-551v-936h555v-154h-555v-368h613v-154h-770zM367 1817l254 417h233l-375 -417h-112zM369 295v127h542v395h62v-436h-541v-86h-63zM369 817v658h542v290h62v-331h-381zM969 -2v297h63v-297h-63z" />
<glyph unicode="&#xca;" horiz-adv-x="1105" d="M74 0v1765h708v-153h-551v-936h555v-154h-555v-368h613v-154h-770zM170 1827l326 407h112l326 -407h-86l-297 244l-295 -244h-86zM369 295v127h542v395h62v-436h-541v-86h-63zM369 817v658h542v290h62v-331h-381zM969 -2v297h63v-297h-63z" />
<glyph unicode="&#xcb;" horiz-adv-x="1105" d="M74 0v1765h708v-153h-551v-936h555v-154h-555v-368h613v-154h-770zM272 1937q0 47 35 82t82 35t82 -35t35 -82q0 -49 -34 -83.5t-83 -34.5t-83 34.5t-34 83.5zM369 295v127h542v395h62v-436h-541v-86h-63zM369 817v658h542v290h62v-331h-381zM596 1937.5q0 49.5 35 83 t84 33.5q47 0 81.5 -35t34.5 -82q0 -49 -33.5 -83.5t-82.5 -34.5t-84 34.5t-35 84zM969 -2v297h63v-297h-63z" />
<glyph unicode="&#xcc;" horiz-adv-x="567" d="M-98 2234h233l254 -417h-113zM74 0v1767h153v-1767h-153zM369 0v1767h125l-62 -1767h-63z" />
<glyph unicode="&#xcd;" horiz-adv-x="567" d="M74 0v1767h153v-1767h-153zM106 1817l254 417h234l-375 -417h-113zM369 0v1767h125l-62 -1767h-63z" />
<glyph unicode="&#xce;" horiz-adv-x="567" d="M-98 1827l325 407h113l326 -407h-86l-297 244l-295 -244h-86zM74 0v1767h153v-1767h-153zM369 0v1767h125l-62 -1767h-63z" />
<glyph unicode="&#xcf;" horiz-adv-x="567" d="M4 1937q0 47 35 82t82 35t82 -35t35 -82q0 -49 -34 -83.5t-83 -34.5t-83 34.5t-34 83.5zM74 0v1767h153v-1767h-153zM328 1937.5q0 49.5 34.5 83t83.5 33.5q47 0 82 -35t35 -82q0 -49 -33.5 -83.5t-83 -34.5t-84 34.5t-34.5 84zM369 0v1767h125l-62 -1767h-63z" />
<glyph unicode="&#xd0;" horiz-adv-x="1392" d="M74 518v156h186v1095l84 -6q332 -25 552 -284.5t220 -597.5t-220 -597t-552 -284l-84 -6v524h-186zM416 170q240 53 393.5 257t153.5 453.5t-154 455.5t-393 259v-921h225v-156h-225v-348zM475 422v29h260v362h62v-295q-29 -41 -84 -96h-238zM555 813v571q47 -26 100 -75 l-39 -496h-61zM764 -4q227 137 360 377.5t133 507.5q0 264 -132 503.5t-355 378.5h64q223 -139 354 -378.5t131 -503.5q0 -266 -133 -507t-361 -378h-61z" />
<glyph unicode="&#xd1;" horiz-adv-x="1724" d="M74 0v1829l1229 -1512v1405h151v-1828l-1229 1511v-1405h-151zM328 1722h59l780 -946v-74zM362 0v1022l142 -174l-82 -848h-60zM485 1821v14q0 94 64.5 158.5t161.5 64.5q63 0 192 -51t178 -51q55 0 80 24.5t39 79.5h37q0 -98 -63.5 -165.5t-159.5 -67.5q-59 0 -190.5 52 t-180.5 52q-98 0 -123 -110h-35zM1589 -2v1724h62v-1724h-62z" />
<glyph unicode="&#xd2;" horiz-adv-x="2160" d="M74 881q0 377 263 643t640 266q379 0 644 -266t265 -643q0 -375 -267 -640.5t-642 -265.5q-377 0 -640 263.5t-263 642.5zM227 881q0 -311 219.5 -530.5t530.5 -219.5q313 0 532.5 218t219.5 531.5t-219.5 532.5t-532.5 219t-531.5 -219t-218.5 -532zM369 881 q0 254 177 434t431 180q2 0 78 -31q-244 -14 -412 -192t-168 -422q0 -240 147.5 -402.5t387.5 -177.5h-33q-252 0 -430 179.5t-178 431.5zM723 2234h233l254 -417h-112zM1536 -2q231 145 359 377.5t128 505.5q0 270 -129 504.5t-356 379.5h61q229 -147 358.5 -379.5 t129.5 -505t-129 -505t-361 -377.5h-61z" />
<glyph unicode="&#xd3;" horiz-adv-x="2160" d="M74 881q0 377 263 643t640 266q379 0 644 -266t265 -643q0 -375 -267 -640.5t-642 -265.5q-377 0 -640 263.5t-263 642.5zM227 881q0 -311 219.5 -530.5t530.5 -219.5q313 0 532.5 218t219.5 531.5t-219.5 532.5t-532.5 219t-531.5 -219t-218.5 -532zM369 881 q0 254 177 434t431 180q2 0 78 -31q-244 -14 -412 -192t-168 -422q0 -240 147.5 -402.5t387.5 -177.5h-33q-252 0 -430 179.5t-178 431.5zM911 1817l254 417h234l-375 -417h-113zM1536 -2q231 145 359 377.5t128 505.5q0 270 -129 504.5t-356 379.5h61 q229 -147 358.5 -379.5t129.5 -505t-129 -505t-361 -377.5h-61z" />
<glyph unicode="&#xd4;" horiz-adv-x="2160" d="M74 881q0 377 263 643t640 266q379 0 644 -266t265 -643q0 -375 -267 -640.5t-642 -265.5q-377 0 -640 263.5t-263 642.5zM227 881q0 -311 219.5 -530.5t530.5 -219.5q313 0 532.5 218t219.5 531.5t-219.5 532.5t-532.5 219t-531.5 -219t-218.5 -532zM369 881 q0 254 177 434t431 180q2 0 78 -31q-244 -14 -412 -192t-168 -422q0 -240 147.5 -402.5t387.5 -177.5h-33q-252 0 -430 179.5t-178 431.5zM571 1827l326 407h113l325 -407h-86l-297 244l-295 -244h-86zM1536 -2q231 145 359 377.5t128 505.5q0 270 -129 504.5t-356 379.5h61 q229 -147 358.5 -379.5t129.5 -505t-129 -505t-361 -377.5h-61z" />
<glyph unicode="&#xd5;" horiz-adv-x="2160" d="M74 881q0 377 263 643t640 266q379 0 644 -266t265 -643q0 -375 -267 -640.5t-642 -265.5q-377 0 -640 263.5t-263 642.5zM227 881q0 -311 219.5 -530.5t530.5 -219.5q313 0 532.5 218t219.5 531.5t-219.5 532.5t-532.5 219t-531.5 -219t-218.5 -532zM369 881 q0 254 177 434t431 180q2 0 78 -31q-244 -14 -412 -192t-168 -422q0 -240 147.5 -402.5t387.5 -177.5h-33q-252 0 -430 179.5t-178 431.5zM598 1821v14q0 94 64.5 158.5t160.5 64.5q61 0 190.5 -51t180.5 -51q55 0 79.5 24.5t39.5 79.5h37q0 -98 -63.5 -165.5t-160.5 -67.5 q-61 0 -192 52t-178 52q-98 0 -123 -110h-35zM1536 -2q231 145 359 377.5t128 505.5q0 270 -129 504.5t-356 379.5h61q229 -147 358.5 -379.5t129.5 -505t-129 -505t-361 -377.5h-61z" />
<glyph unicode="&#xd6;" horiz-adv-x="2160" d="M74 881q0 377 263 643t640 266q379 0 644 -266t265 -643q0 -375 -267 -640.5t-642 -265.5q-377 0 -640 263.5t-263 642.5zM227 881q0 -311 219.5 -530.5t530.5 -219.5q313 0 532.5 218t219.5 531.5t-219.5 532.5t-532.5 219t-531.5 -219t-218.5 -532zM369 881 q0 254 177 434t431 180q2 0 78 -31q-244 -14 -412 -192t-168 -422q0 -240 147.5 -402.5t387.5 -177.5h-33q-252 0 -430 179.5t-178 431.5zM682 1954q0 47 35 82t82 35t81.5 -35t34.5 -82q0 -49 -33.5 -84t-82.5 -35t-83 35t-34 84zM1006 1954q0 49 34.5 83t83.5 34 q47 0 82 -35t35 -82q0 -49 -33.5 -84t-83 -35t-84 35t-34.5 84zM1536 -2q231 145 359 377.5t128 505.5q0 270 -129 504.5t-356 379.5h61q229 -147 358.5 -379.5t129.5 -505t-129 -505t-361 -377.5h-61z" />
<glyph unicode="&#xd7;" horiz-adv-x="1316" d="M74 449l360 360l-344 342l109 109l344 -342l358 358l109 -109l-359 -358l381 -381l-108 -109l-381 381l-361 -360zM283 240l258 258l43 -45l-256 -258zM297 1360l45 45l256 -256l-45 -45zM850 807l274 274l-114 -344l166 -166l-46 -45zM989 1364l45 45l209 -209l-45 -45z " />
<glyph unicode="&#xd8;" horiz-adv-x="2134" d="M74 854q0 365 257 621t621 256q324 0 566 -205l159 160l107 -109l-160 -158q207 -243 207 -565q0 -367 -256 -623t-623 -256q-317 0 -565 205l-162 -157l-104 106l160 160q-207 244 -207 565zM223 854q0 -258 164 -459l1024 1022q-197 166 -459 166q-303 0 -516 -213 t-213 -516zM358 854q0 254 178.5 424t432.5 170q2 0 7 -1t7 -1q-238 -10 -401.5 -182t-163.5 -410q0 -92 35 -203l-41 -43q-53 119 -54 246zM492 289q197 -164 460 -164q305 0 517 212t212 517q0 254 -163 459zM709 313l784 785q4 -6 7 -13.5t6 -16.5t5 -13l-741 -742 q94 -47 213 -53h-31q-135 0 -243 53zM1495 -2q219 139 346 367.5t127 488.5q0 301 -166 551l197 199l-223 227h59l225 -227l-196 -199q164 -246 164 -551q0 -260 -126 -487.5t-346 -368.5h-61z" />
<glyph unicode="&#xd9;" horiz-adv-x="1765" d="M74 707v1058h155v-1058q0 -231 162 -392t391 -161q227 0 390 162.5t163 390.5v1058h154v-1058q0 -293 -207 -500t-500 -207q-295 0 -501.5 206t-206.5 501zM367 707v1058h172l-109 -1058q0 -4 -1 -11.5t-1 -11.5q0 -147 115.5 -259t269.5 -130h-31q-172 0 -293.5 120 t-121.5 292zM639 2234h233l254 -417h-112zM1241 -2q182 117 285.5 305.5t103.5 403.5v1058h62v-1058q0 -215 -103.5 -402.5t-283.5 -306.5h-64z" />
<glyph unicode="&#xda;" horiz-adv-x="1765" d="M74 707v1058h155v-1058q0 -231 162 -392t391 -161q227 0 390 162.5t163 390.5v1058h154v-1058q0 -293 -207 -500t-500 -207q-295 0 -501.5 206t-206.5 501zM367 707v1058h172l-109 -1058q0 -4 -1 -11.5t-1 -11.5q0 -147 115.5 -259t269.5 -130h-31q-172 0 -293.5 120 t-121.5 292zM639 1817l254 417h233l-374 -417h-113zM1241 -2q182 117 285.5 305.5t103.5 403.5v1058h62v-1058q0 -215 -103.5 -402.5t-283.5 -306.5h-64z" />
<glyph unicode="&#xdb;" horiz-adv-x="1765" d="M74 707v1058h155v-1058q0 -231 162 -392t391 -161q227 0 390 162.5t163 390.5v1058h154v-1058q0 -293 -207 -500t-500 -207q-295 0 -501.5 206t-206.5 501zM367 707v1058h172l-109 -1058q0 -4 -1 -11.5t-1 -11.5q0 -147 115.5 -259t269.5 -130h-31q-172 0 -293.5 120 t-121.5 292zM500 1827l325 407h113l326 -407h-86l-297 244l-295 -244h-86zM1241 -2q182 117 285.5 305.5t103.5 403.5v1058h62v-1058q0 -215 -103.5 -402.5t-283.5 -306.5h-64z" />
<glyph unicode="&#xdc;" horiz-adv-x="1765" d="M74 707v1058h155v-1058q0 -231 162 -392t391 -161q227 0 390 162.5t163 390.5v1058h154v-1058q0 -293 -207 -500t-500 -207q-295 0 -501.5 206t-206.5 501zM367 707v1058h172l-109 -1058q0 -4 -1 -11.5t-1 -11.5q0 -147 115.5 -259t269.5 -130h-31q-172 0 -293.5 120 t-121.5 292zM602 1937q0 47 35 82t82 35t82 -35t35 -82q0 -49 -34 -83.5t-83 -34.5t-83 34.5t-34 83.5zM926 1937.5q0 49.5 34.5 83t83.5 33.5q47 0 82 -35t35 -82q0 -49 -33.5 -83.5t-83 -34.5t-84 34.5t-34.5 84zM1241 -2q182 117 285.5 305.5t103.5 403.5v1058h62v-1058 q0 -215 -103.5 -402.5t-283.5 -306.5h-64z" />
<glyph unicode="&#xdd;" horiz-adv-x="2027" d="M74 1765h207l784 -893l489 893h177l-967 -1765h-178l399 727zM465 1765h170l426 -608l-21 -43zM868 1817l254 417h234l-375 -417h-113zM920 -2l972 1767h62l-973 -1767h-61z" />
<glyph unicode="&#xde;" horiz-adv-x="1114" d="M74 0v1763h153v-254q258 -6 434.5 -189t176.5 -441q0 -256 -177.5 -439.5t-433.5 -191.5v-248h-153zM227 401q190 10 323.5 149t133.5 329q0 193 -132 331t-325 146v-955zM365 0v125q268 55 441 268t173 486q0 274 -173 486t-441 269v129h63v-129q268 -57 440 -270 t172 -485q0 -274 -173 -486.5t-439 -267.5v-125h-63zM365 582v594q29 -12 63 -43v-508q-27 -27 -63 -43z" />
<glyph unicode="&#xdf;" horiz-adv-x="1576" d="M74 139l112 103q84 -90 205 -90q113 0 192 79.5t79 194.5q0 102 -70 182l-256 283q-145 158 -146 375q0 211 147.5 354t360.5 143v-157q-150 0 -252 -96.5t-102 -243.5q0 -96 49 -184.5t119 -159t139.5 -142t118.5 -163t49 -191.5q0 -135 -76 -242q59 -33 131 -32 q113 0 193 79.5t80 194.5q0 76 -49 151.5t-119 143t-138.5 142.5t-117.5 179.5t-49 223.5q0 211 147.5 354t360.5 143v-157q-147 0 -251 -96.5t-104 -243.5q0 -98 49.5 -186.5t119 -158l139 -139t119 -162t49.5 -194.5q0 -178 -125 -304t-304 -126q-133 0 -243 76 q-115 -76 -240 -76q-190 0 -317 143zM483 1266q0 104 70 151q-18 -74 -18 -151q0 -88 18 -174q-70 80 -70 174zM944 547q4 -6 13.5 -16.5t14.5 -15.5t12 -14t10 -16.5t7.5 -16.5t5.5 -19.5t1 -22.5q0 -70 -62 -113q10 47 10 113q0 61 -12 121zM969 1266q0 84 57 142t141 58 h60q-84 -6 -140.5 -61t-56.5 -139q0 -72 49 -145.5t118 -142.5t138.5 -144.5t118.5 -181t49 -226.5q0 -260 -196 -430h-62q197 170 197 430q0 121 -49.5 226.5t-119 181t-138 144.5t-117.5 142.5t-49 145.5zM1307 1468v295h63v-295h-63z" />
<glyph unicode="&#xe0;" d="M74 0l682 1853l680 -1853h-164l-66 180h-901l-65 -180h-166zM362 334h785l-391 1067zM387 -2l16 41h62l-16 -41h-62zM492 2234h233l254 -417h-113zM561 475l195 524l73 -200l-206 -324h-62zM922 1763h63l662 -1765h-62z" />
<glyph unicode="&#xe1;" d="M74 0l682 1853l680 -1853h-164l-66 180h-901l-65 -180h-166zM362 334h785l-391 1067zM387 -2l16 41h62l-16 -41h-62zM561 475l195 524l73 -200l-206 -324h-62zM825 1817l254 417h234l-375 -417h-113zM922 1763h63l662 -1765h-62z" />
<glyph unicode="&#xe2;" d="M74 0l682 1853l680 -1853h-164l-66 180h-901l-65 -180h-166zM362 334h785l-391 1067zM387 -2l16 41h62l-16 -41h-62zM477 1827l326 407h112l326 -407h-86l-297 244l-295 -244h-86zM561 475l195 524l73 -200l-206 -324h-62zM922 1763h63l662 -1765h-62z" />
<glyph unicode="&#xe3;" d="M74 0l682 1853l680 -1853h-164l-66 180h-901l-65 -180h-166zM362 334h785l-391 1067zM387 -2l16 41h62l-16 -41h-62zM483 1821v14q0 94 64.5 158.5t161.5 64.5q61 0 190 -51t180 -51q55 0 80 24.5t39 79.5h37q0 -98 -63.5 -165.5t-159.5 -67.5q-61 0 -192.5 52t-178.5 52 q-98 0 -123 -110h-35zM561 475l195 524l73 -200l-206 -324h-62zM922 1763h63l662 -1765h-62z" />
<glyph unicode="&#xe4;" d="M74 0l682 1853l680 -1853h-164l-66 180h-901l-65 -180h-166zM362 334h785l-391 1067zM387 -2l16 41h62l-16 -41h-62zM485 1937q0 47 35 82t82 35t82 -35t35 -82q0 -49 -34 -83.5t-83 -34.5t-83 34.5t-34 83.5zM561 475l195 524l73 -200l-206 -324h-62zM809 1937.5 q0 49.5 35 83t84 33.5q47 0 81.5 -35t34.5 -82q0 -49 -33.5 -83.5t-82.5 -34.5t-84 34.5t-35 84zM922 1763h63l662 -1765h-62z" />
<glyph unicode="&#xe5;" d="M74 0l682 1853l680 -1853h-164l-66 180h-901l-65 -180h-166zM362 334h785l-391 1067zM387 -2l16 41h62l-16 -41h-62zM510 2054.5q0 102.5 73.5 176t176 73.5t175.5 -73.5t73 -176t-73 -175.5t-175.5 -73t-176 73t-73.5 175.5zM561 475l195 524l73 -200l-206 -324h-62z M602 2054.5q0 -63.5 47 -110t110.5 -46.5t109.5 46.5t46 109.5q0 66 -46 112t-109.5 46t-110.5 -47t-47 -110.5zM922 1763h63l662 -1765h-62z" />
<glyph unicode="&#xe6;" horiz-adv-x="2256" d="M74 0l1190 1763h669v-157h-551v-932h555v-156h-555v-362h615v-156h-770v518h-615l-352 -518h-186zM428 0l258 379h64l-261 -379h-61zM715 674h512v756zM979 813l108 162v-94l-47 -68h-61zM1520 291v88h542v434h64v-465h-543v-57h-63zM1520 813v655h538v295h64v-325h-410z M2122 0v291h61v-291h-61z" />
<glyph unicode="&#xe7;" horiz-adv-x="1742" d="M74 881q0 379 265 644t642 265q270 0 498 -150l-84 -131q-184 123 -414 123q-313 0 -532.5 -219t-219.5 -532q0 -311 220.5 -530.5t531.5 -219.5q227 0 414 123l84 -129q-223 -150 -498 -150q-248 0 -457 121t-329.5 330t-120.5 455zM369 881q0 256 179 435t433 179 q2 0 78 -31q-246 -14 -414 -190t-168 -424q0 -240 149.5 -403.5t387.5 -176.5h-33q-254 0 -433 178.5t-179 432.5zM645 -463q96 0 199.5 28.5t103.5 98.5q0 33 -28.5 59.5t-71.5 40t-81 20.5t-71 7l154 260h125l-111 -190q100 -10 195.5 -58.5t95.5 -130.5q0 -57 -44 -99 t-113.5 -60.5t-128 -25.5t-113.5 -7q-16 0 -49 1t-50 1zM1458 344q27 12 45 27l166 -248l-45 -29zM1458 1421l127 191l43 -31l-125 -186q-18 14 -45 26z" />
<glyph unicode="&#xe8;" horiz-adv-x="1105" d="M74 0v1765h708v-153h-551v-936h555v-154h-555v-368h613v-154h-770zM309 2234h234l254 -417h-113zM369 295v127h542v395h62v-436h-541v-86h-63zM369 817v658h542v290h62v-331h-381zM969 -2v297h63v-297h-63z" />
<glyph unicode="&#xe9;" horiz-adv-x="1105" d="M74 0v1765h708v-153h-551v-936h555v-154h-555v-368h613v-154h-770zM309 1817l254 417h234l-375 -417h-113zM369 295v127h542v395h62v-436h-541v-86h-63zM369 817v658h542v290h62v-331h-381zM969 -2v297h63v-297h-63z" />
<glyph unicode="&#xea;" horiz-adv-x="1105" d="M74 0v1765h708v-153h-551v-936h555v-154h-555v-368h613v-154h-770zM170 1827l326 407h112l326 -407h-86l-297 244l-295 -244h-86zM369 295v127h542v395h62v-436h-541v-86h-63zM369 817v658h542v290h62v-331h-381zM969 -2v297h63v-297h-63z" />
<glyph unicode="&#xeb;" horiz-adv-x="1105" d="M74 0v1765h708v-153h-551v-936h555v-154h-555v-368h613v-154h-770zM272 1937q0 47 35 82t82 35t82 -35t35 -82q0 -49 -34 -83.5t-83 -34.5t-83 34.5t-34 83.5zM369 295v127h542v395h62v-436h-541v-86h-63zM369 817v658h542v290h62v-331h-381zM596 1937.5q0 49.5 35 83 t84 33.5q47 0 81.5 -35t34.5 -82q0 -49 -33.5 -83.5t-82.5 -34.5t-84 34.5t-35 84zM969 -2v297h63v-297h-63z" />
<glyph unicode="&#xec;" horiz-adv-x="567" d="M-111 2234h234l254 -417h-113zM74 0v1767h153v-1767h-153zM369 0v1767h125l-62 -1767h-63z" />
<glyph unicode="&#xed;" horiz-adv-x="567" d="M74 0v1767h153v-1767h-153zM102 1817l254 417h234l-375 -417h-113zM369 0v1767h125l-62 -1767h-63z" />
<glyph unicode="&#xee;" horiz-adv-x="567" d="M-98 1827l325 407h113l326 -407h-86l-297 244l-295 -244h-86zM74 0v1767h153v-1767h-153zM369 0v1767h125l-62 -1767h-63z" />
<glyph unicode="&#xef;" horiz-adv-x="567" d="M4 1937q0 47 35 82t82 35t82 -35t35 -82q0 -49 -34 -83.5t-83 -34.5t-83 34.5t-34 83.5zM74 0v1767h153v-1767h-153zM328 1937.5q0 49.5 34.5 83t83.5 33.5q47 0 82 -35t35 -82q0 -49 -33.5 -83.5t-83 -34.5t-84 34.5t-34.5 84zM369 0v1767h125l-62 -1767h-63z" />
<glyph unicode="&#xf0;" horiz-adv-x="1392" d="M74 518v156h186v1095l84 -6q332 -25 552 -284.5t220 -597.5t-220 -597t-552 -284l-84 -6v524h-186zM416 170q240 53 393.5 257t153.5 453.5t-154 455.5t-393 259v-921h225v-156h-225v-348zM475 422v29h260v362h62v-295q-29 -41 -84 -96h-238zM555 813v571q47 -26 100 -75 l-39 -496h-61zM764 -4q227 137 360 377.5t133 507.5q0 264 -132 503.5t-355 378.5h64q223 -139 354 -378.5t131 -503.5q0 -266 -133 -507t-361 -378h-61z" />
<glyph unicode="&#xf1;" horiz-adv-x="1724" d="M74 0v1829l1229 -1512v1405h151v-1828l-1229 1511v-1405h-151zM328 1722h59l780 -946v-74zM362 0v1022l142 -174l-82 -848h-60zM485 1821v14q0 94 64.5 158.5t161.5 64.5q63 0 192 -51t178 -51q55 0 80 24.5t39 79.5h37q0 -98 -63.5 -165.5t-159.5 -67.5q-59 0 -190.5 52 t-180.5 52q-98 0 -123 -110h-35zM1589 -2v1724h62v-1724h-62z" />
<glyph unicode="&#xf2;" horiz-adv-x="2160" d="M74 881q0 377 263 643t640 266q379 0 644 -266t265 -643q0 -375 -267 -640.5t-642 -265.5q-377 0 -640 263.5t-263 642.5zM227 881q0 -311 219.5 -530.5t530.5 -219.5q313 0 532.5 218t219.5 531.5t-219.5 532.5t-532.5 219t-531.5 -219t-218.5 -532zM369 881 q0 254 177 434t431 180q2 0 78 -31q-244 -14 -412 -192t-168 -422q0 -240 147.5 -402.5t387.5 -177.5h-33q-252 0 -430 179.5t-178 431.5zM711 2234h233l254 -417h-113zM1536 -2q231 145 359 377.5t128 505.5q0 270 -129 504.5t-356 379.5h61q229 -147 358.5 -379.5 t129.5 -505t-129 -505t-361 -377.5h-61z" />
<glyph unicode="&#xf3;" horiz-adv-x="2160" d="M74 881q0 377 263 643t640 266q379 0 644 -266t265 -643q0 -375 -267 -640.5t-642 -265.5q-377 0 -640 263.5t-263 642.5zM227 881q0 -311 219.5 -530.5t530.5 -219.5q313 0 532.5 218t219.5 531.5t-219.5 532.5t-532.5 219t-531.5 -219t-218.5 -532zM369 881 q0 254 177 434t431 180q2 0 78 -31q-244 -14 -412 -192t-168 -422q0 -240 147.5 -402.5t387.5 -177.5h-33q-252 0 -430 179.5t-178 431.5zM918 1853l253 418h234l-375 -418h-112zM1536 -2q231 145 359 377.5t128 505.5q0 270 -129 504.5t-356 379.5h61 q229 -147 358.5 -379.5t129.5 -505t-129 -505t-361 -377.5h-61z" />
<glyph unicode="&#xf4;" horiz-adv-x="2160" d="M74 881q0 377 263 643t640 266q379 0 644 -266t265 -643q0 -375 -267 -640.5t-642 -265.5q-377 0 -640 263.5t-263 642.5zM227 881q0 -311 219.5 -530.5t530.5 -219.5q313 0 532.5 218t219.5 531.5t-219.5 532.5t-532.5 219t-531.5 -219t-218.5 -532zM369 881 q0 254 177 434t431 180q2 0 78 -31q-244 -14 -412 -192t-168 -422q0 -240 147.5 -402.5t387.5 -177.5h-33q-252 0 -430 179.5t-178 431.5zM571 1827l326 407h113l325 -407h-86l-297 244l-295 -244h-86zM1536 -2q231 145 359 377.5t128 505.5q0 270 -129 504.5t-356 379.5h61 q229 -147 358.5 -379.5t129.5 -505t-129 -505t-361 -377.5h-61z" />
<glyph unicode="&#xf5;" horiz-adv-x="2160" d="M74 881q0 377 263 643t640 266q379 0 644 -266t265 -643q0 -375 -267 -640.5t-642 -265.5q-377 0 -640 263.5t-263 642.5zM227 881q0 -311 219.5 -530.5t530.5 -219.5q313 0 532.5 218t219.5 531.5t-219.5 532.5t-532.5 219t-531.5 -219t-218.5 -532zM369 881 q0 254 177 434t431 180q2 0 78 -31q-244 -14 -412 -192t-168 -422q0 -240 147.5 -402.5t387.5 -177.5h-33q-252 0 -430 179.5t-178 431.5zM606 1833v14q0 94 64.5 159t160.5 65q61 0 190.5 -51.5t180.5 -51.5q55 0 80 24.5t39 80.5h37q0 -98 -63.5 -166t-159.5 -68 q-61 0 -192.5 52.5t-178.5 52.5q-98 0 -123 -111h-35zM1536 -2q231 145 359 377.5t128 505.5q0 270 -129 504.5t-356 379.5h61q229 -147 358.5 -379.5t129.5 -505t-129 -505t-361 -377.5h-61z" />
<glyph unicode="&#xf6;" horiz-adv-x="2160" d="M74 881q0 377 263 643t640 266q379 0 644 -266t265 -643q0 -375 -267 -640.5t-642 -265.5q-377 0 -640 263.5t-263 642.5zM227 881q0 -311 219.5 -530.5t530.5 -219.5q313 0 532.5 218t219.5 531.5t-219.5 532.5t-532.5 219t-531.5 -219t-218.5 -532zM369 881 q0 254 177 434t431 180q2 0 78 -31q-244 -14 -412 -192t-168 -422q0 -240 147.5 -402.5t387.5 -177.5h-33q-252 0 -430 179.5t-178 431.5zM694 1960q0 47 35 82t82 35t82 -35t35 -82q0 -49 -34 -84t-83 -35t-83 35t-34 84zM1018 1960q0 49 34.5 83t84.5 34q47 0 81.5 -35 t34.5 -82q0 -49 -33.5 -84t-83 -35t-84 35t-34.5 84zM1536 -2q231 145 359 377.5t128 505.5q0 270 -129 504.5t-356 379.5h61q229 -147 358.5 -379.5t129.5 -505t-129 -505t-361 -377.5h-61z" />
<glyph unicode="&#xf7;" horiz-adv-x="1501" d="M74 631v31h420v-31h-420zM74 801v155h1179v-155h-1179zM571 1063v231h156v-231h-156zM575 438v226h156v-226h-156zM866 1063v231h62v-231h-62zM870 438v226h510v401h47v-434h-495v-193h-62z" />
<glyph unicode="&#xf8;" horiz-adv-x="2134" d="M74 854q0 365 257 621t621 256q324 0 566 -205l159 160l107 -109l-160 -158q207 -243 207 -565q0 -367 -256 -623t-623 -256q-317 0 -565 205l-162 -157l-104 106l160 160q-207 244 -207 565zM223 854q0 -258 164 -459l1024 1022q-197 166 -459 166q-303 0 -516 -213 t-213 -516zM358 854q0 254 178.5 424t432.5 170q2 0 7 -1t7 -1q-238 -10 -401.5 -182t-163.5 -410q0 -92 35 -203l-41 -43q-53 119 -54 246zM492 289q197 -164 460 -164q305 0 517 212t212 517q0 254 -163 459zM709 313l784 785q4 -6 7 -13.5t6 -16.5t5 -13l-741 -742 q94 -47 213 -53h-31q-135 0 -243 53zM1495 -2q219 139 346 367.5t127 488.5q0 301 -166 551l197 199l-223 227h59l225 -227l-196 -199q164 -246 164 -551q0 -260 -126 -487.5t-346 -368.5h-61z" />
<glyph unicode="&#xf9;" horiz-adv-x="1765" d="M74 707v1058h155v-1058q0 -231 162 -392t391 -161q227 0 390 162.5t163 390.5v1058h154v-1058q0 -293 -207 -500t-500 -207q-295 0 -501.5 206t-206.5 501zM367 707v1058h172l-109 -1058q0 -4 -1 -11.5t-1 -11.5q0 -147 115.5 -259t269.5 -130h-31q-172 0 -293.5 120 t-121.5 292zM639 2234h233l254 -417h-112zM1241 -2q182 117 285.5 305.5t103.5 403.5v1058h62v-1058q0 -215 -103.5 -402.5t-283.5 -306.5h-64z" />
<glyph unicode="&#xfa;" horiz-adv-x="1765" d="M74 707v1058h155v-1058q0 -231 162 -392t391 -161q227 0 390 162.5t163 390.5v1058h154v-1058q0 -293 -207 -500t-500 -207q-295 0 -501.5 206t-206.5 501zM367 707v1058h172l-109 -1058q0 -4 -1 -11.5t-1 -11.5q0 -147 115.5 -259t269.5 -130h-31q-172 0 -293.5 120 t-121.5 292zM639 1817l254 417h233l-374 -417h-113zM1241 -2q182 117 285.5 305.5t103.5 403.5v1058h62v-1058q0 -215 -103.5 -402.5t-283.5 -306.5h-64z" />
<glyph unicode="&#xfb;" horiz-adv-x="1765" d="M74 707v1058h155v-1058q0 -231 162 -392t391 -161q227 0 390 162.5t163 390.5v1058h154v-1058q0 -293 -207 -500t-500 -207q-295 0 -501.5 206t-206.5 501zM367 707v1058h172l-109 -1058q0 -4 -1 -11.5t-1 -11.5q0 -147 115.5 -259t269.5 -130h-31q-172 0 -293.5 120 t-121.5 292zM500 1827l325 407h113l326 -407h-86l-297 244l-295 -244h-86zM1241 -2q182 117 285.5 305.5t103.5 403.5v1058h62v-1058q0 -215 -103.5 -402.5t-283.5 -306.5h-64z" />
<glyph unicode="&#xfc;" horiz-adv-x="1765" d="M74 707v1058h155v-1058q0 -231 162 -392t391 -161q227 0 390 162.5t163 390.5v1058h154v-1058q0 -293 -207 -500t-500 -207q-295 0 -501.5 206t-206.5 501zM367 707v1058h172l-109 -1058q0 -4 -1 -11.5t-1 -11.5q0 -147 115.5 -259t269.5 -130h-31q-172 0 -293.5 120 t-121.5 292zM602 1937q0 47 35 82t82 35t82 -35t35 -82q0 -49 -34 -83.5t-83 -34.5t-83 34.5t-34 83.5zM926 1937.5q0 49.5 34.5 83t83.5 33.5q47 0 82 -35t35 -82q0 -49 -33.5 -83.5t-83 -34.5t-84 34.5t-34.5 84zM1241 -2q182 117 285.5 305.5t103.5 403.5v1058h62v-1058 q0 -215 -103.5 -402.5t-283.5 -306.5h-64z" />
<glyph unicode="&#xfd;" horiz-adv-x="2027" d="M74 1765h207l784 -893l489 893h177l-967 -1765h-178l399 727zM465 1765h170l426 -608l-21 -43zM858 1817l254 417h234l-375 -417h-113zM920 -2l972 1767h62l-973 -1767h-61z" />
<glyph unicode="&#xfe;" horiz-adv-x="1114" d="M74 0v1763h153v-254q258 -6 434.5 -189t176.5 -441q0 -256 -177.5 -439.5t-433.5 -191.5v-248h-153zM227 401q190 10 323.5 149t133.5 329q0 193 -132 331t-325 146v-955zM365 0v125q268 55 441 268t173 486q0 274 -173 486t-441 269v129h63v-129q268 -57 440 -270 t172 -485q0 -274 -173 -486.5t-439 -267.5v-125h-63zM365 582v594q29 -12 63 -43v-508q-27 -27 -63 -43z" />
<glyph unicode="&#xff;" horiz-adv-x="2027" d="M74 1765h207l784 -893l489 893h177l-967 -1765h-178l399 727zM465 1765h170l426 -608l-21 -43zM844 1937q0 47 34.5 82t82 35t82 -35t34.5 -82q0 -49 -33.5 -83.5t-83 -34.5t-83 34.5t-33.5 83.5zM920 -2l972 1767h62l-973 -1767h-61zM1167 1937.5q0 49.5 35 83t84 33.5 q47 0 82 -35t35 -82q0 -49 -34 -83.5t-83 -34.5t-84 34.5t-35 84z" />
<glyph unicode="&#x152;" horiz-adv-x="2764" d="M74 881q0 377 264 643t641 266q229 0 428 -107.5t326 -298.5v222q-82 88 -193 159h62q68 -41 131 -98v98h708v-153h-551v-936h555v-154h-555v-368h613v-154h-770v98q-59 -53 -131 -100h-62q102 66 193 160v221q-125 -190 -325 -297t-429 -107q-375 0 -640 265.5 t-265 640.5zM227 880.5q0 -311.5 220.5 -530.5t531.5 -219t531.5 219.5t220.5 530.5q0 313 -219.5 532t-532.5 219q-311 0 -531.5 -220t-220.5 -531.5zM369 881q0 256 177 435t433 179q17 0 78 -31q-246 -14 -413 -191t-167 -423q0 -240 147.5 -402.5t387.5 -177.5h-33 q-250 0 -430 180.5t-180 430.5zM2028 295v127h542v395h62v-436h-541v-86h-63zM2028 817v658h542v290h62v-331h-381zM2628 -2v297h63v-297h-63z" />
<glyph unicode="&#x153;" horiz-adv-x="2764" d="M74 881q0 377 264 643t641 266q229 0 428 -107.5t326 -298.5v222q-82 88 -193 159h62q68 -41 131 -98v98h708v-153h-551v-936h555v-154h-555v-368h613v-154h-770v98q-59 -53 -131 -100h-62q102 66 193 160v221q-125 -190 -325 -297t-429 -107q-375 0 -640 265.5 t-265 640.5zM227 880.5q0 -311.5 220.5 -530.5t531.5 -219t531.5 219.5t220.5 530.5q0 313 -219.5 532t-532.5 219q-311 0 -531.5 -220t-220.5 -531.5zM369 881q0 256 177 435t433 179q17 0 78 -31q-246 -14 -413 -191t-167 -423q0 -240 147.5 -402.5t387.5 -177.5h-33 q-250 0 -430 180.5t-180 430.5zM2028 295v127h542v395h62v-436h-541v-86h-63zM2028 817v658h542v290h62v-331h-381zM2628 -2v297h63v-297h-63z" />
<glyph unicode="&#x178;" horiz-adv-x="2027" d="M74 1765h207l784 -893l489 893h177l-967 -1765h-178l399 727zM465 1765h170l426 -608l-21 -43zM784 1937q0 47 35 82t82 35t82 -35t35 -82q0 -49 -34 -83.5t-83 -34.5t-83 34.5t-34 83.5zM920 -2l972 1767h62l-973 -1767h-61zM1108 1937.5q0 49.5 35 83t84 33.5 q47 0 81.5 -35t34.5 -82q0 -49 -33.5 -83.5t-82.5 -34.5t-84 34.5t-35 84z" />
<glyph unicode="&#x2c6;" horiz-adv-x="911" d="M74 1827l325 407h113l326 -407h-86l-297 244l-295 -244h-86z" />
<glyph unicode="&#x2dc;" horiz-adv-x="899" d="M74 1821v14q0 94 64.5 158.5t160.5 64.5q61 0 190 -51t181 -51q55 0 79.5 24.5t38.5 79.5h37q0 -98 -63.5 -165.5t-159.5 -67.5q-61 0 -192 52t-179 52q-98 0 -122 -110h-35z" />
<glyph unicode="&#x2000;" horiz-adv-x="1152" />
<glyph unicode="&#x2001;" horiz-adv-x="2304" />
<glyph unicode="&#x2002;" horiz-adv-x="1152" />
<glyph unicode="&#x2003;" horiz-adv-x="2304" />
<glyph unicode="&#x2004;" horiz-adv-x="768" />
<glyph unicode="&#x2005;" horiz-adv-x="576" />
<glyph unicode="&#x2006;" horiz-adv-x="384" />
<glyph unicode="&#x2007;" horiz-adv-x="384" />
<glyph unicode="&#x2008;" horiz-adv-x="288" />
<glyph unicode="&#x2009;" horiz-adv-x="460" />
<glyph unicode="&#x200a;" horiz-adv-x="128" />
<glyph unicode="&#x2010;" horiz-adv-x="722" d="M74 801v155h401v-155h-401zM190 631v33h412v401h47v-434h-459z" />
<glyph unicode="&#x2011;" horiz-adv-x="722" d="M74 801v155h401v-155h-401zM190 631v33h412v401h47v-434h-459z" />
<glyph unicode="&#x2012;" horiz-adv-x="722" d="M74 801v155h401v-155h-401zM190 631v33h412v401h47v-434h-459z" />
<glyph unicode="&#x2013;" horiz-adv-x="1132" d="M74 801v155h811v-155h-811zM190 631v33h822v401h47v-434h-869z" />
<glyph unicode="&#x2014;" horiz-adv-x="2136" d="M74 801v155h1814v-155h-1814zM190 631v33h1825v401h47v-434h-1872z" />
<glyph unicode="&#x2018;" horiz-adv-x="505" d="M74 1386l262 418h96l-156 -418h-202z" />
<glyph unicode="&#x2019;" horiz-adv-x="505" d="M74 1386l155 418h203l-262 -418h-96z" />
<glyph unicode="&#x201a;" horiz-adv-x="505" d="M74 -231l155 417h203l-262 -417h-96z" />
<glyph unicode="&#x201c;" horiz-adv-x="731" d="M74 1386l262 418h96l-156 -418h-202zM299 1386l262 418h96l-155 -418h-203z" />
<glyph unicode="&#x201d;" horiz-adv-x="731" d="M74 1386l155 418h203l-262 -418h-96zM299 1386l156 418h202l-262 -418h-96z" />
<glyph unicode="&#x201e;" horiz-adv-x="731" d="M74 -231l155 417h203l-262 -417h-96zM299 -231l156 417h202l-262 -417h-96z" />
<glyph unicode="&#x2022;" horiz-adv-x="905" d="M74 856q0 158 110.5 268.5t268 110.5t268 -110.5t110.5 -268.5t-110.5 -267.5t-268 -109.5t-268 109.5t-110.5 267.5z" />
<glyph unicode="&#x2026;" horiz-adv-x="1036" d="M74 0v225h155v-225h-155zM340 0v225h156v-225h-156zM606 0v225h156v-225h-156zM901 0v225h62v-225h-62z" />
<glyph unicode="&#x202f;" horiz-adv-x="460" />
<glyph unicode="&#x2039;" horiz-adv-x="552" d="M74 879l348 516h57l-203 -516l203 -514h-57z" />
<glyph unicode="&#x203a;" horiz-adv-x="552" d="M74 365l202 514l-202 516h57l348 -516l-348 -514h-57z" />
<glyph unicode="&#x205f;" horiz-adv-x="576" />
<glyph unicode="&#x20ac;" horiz-adv-x="1845" d="M74 676v155h168q-2 16 -2 47t2 48h-168v155h188q72 309 319.5 506t565.5 197q231 0 418 -103l-84 -129q-160 78 -334 78q-256 0 -455.5 -151.5t-269.5 -397.5h1141v-155h-1168v-95h1043v-155h-1016q70 -244 271.5 -396.5t453.5 -152.5q174 0 334 78l84 -129 q-195 -102 -418 -103q-317 0 -565 197t-320 506h-188zM627 563h936v236h125v422h63v-447h-125v-235h-924q172 -258 478 -271h-33q-158 0 -304.5 80t-215.5 215zM639 1221q182 272 524 272q4 0 8.5 -1t8.5 -1q-309 -16 -478 -270h-63zM1501 342q29 16 43 27l228 -346h-62z M1501 1417l209 320h62l-228 -346q-14 10 -43 26z" />
<glyph unicode="&#x2122;" horiz-adv-x="1794" d="M74 1581v31h180v-31h-180zM74 1681v78h579v-78h-252v-798h-75v798h-252zM471 883v729h193l-162 -80v-649h-31zM717 1612v147h31v-147h-31zM821 883v911l404 -768l401 768v-911h-72v620l-329 -633l-332 633v-620h-72zM934 1700h57l248 -510l-14 -27zM958 883v358l60 -113 l-31 -245h-29zM1303 883l188 358v-55l-158 -303h-30zM1692 883v817h28v-817h-28z" />
<glyph unicode="&#x25fc;" horiz-adv-x="1761" d="M0 0v1761h1761v-1761h-1761z" />
</font>
</defs>
</svg>
